<?xml version="1.0" standalone="no"?>
<!DOCTYPE svg PUBLIC "-//W3C//DTD SVG 1.1//EN" "http://www.w3.org/Graphics/SVG/1.1/DTD/svg11.dtd" >
<svg xmlns="http://www.w3.org/2000/svg">
<metadata>
This is a custom SVG webfont generated by Font Squirrel.
Copyright   : Copyright c Yanek Iontef 19952005 All rights reserved
Designer    : Yanek Iontef
Foundry     : Yanek Iontef
Foundry URL : wwwfontefcom
</metadata>
<defs>
<font id="AdumaFOTBold" horiz-adv-x="557" >
<font-face units-per-em="1000" ascent="700" descent="-300" />
<missing-glyph horiz-adv-x="284" />
<glyph unicode=" "  horiz-adv-x="284" />
<glyph unicode="&#x09;" horiz-adv-x="284" />
<glyph unicode="&#xa0;" horiz-adv-x="284" />
<glyph unicode="!" horiz-adv-x="314" d="M73 333v336h181v-336l-40 -107h-101zM79 0v169h169v-169h-169z" />
<glyph unicode="&#x22;" horiz-adv-x="459" d="M60 433v291h146v-230zM254 433v291h145v-230z" />
<glyph unicode="#" horiz-adv-x="695" d="M24 140l21 138h84l26 143h-80l22 138h80l20 110h166l-18 -110h66l19 110h159l-18 -110h76l-24 -138h-76l-24 -143h72l-21 -138h-74l-24 -140h-161l26 140h-68l-24 -140h-167l23 140h-81zM295 278h68l24 143h-65z" />
<glyph unicode="$" horiz-adv-x="556" d="M42 215h182q0 -30 17 -48t37 -18q43 0 43 34q0 24 -40.5 56t-89.5 62.5t-90 80.5t-41 106q0 66 44.5 119.5t112.5 71.5v81h121v-81q158 -40 158 -195h-5h-3h-5h-4h-5h-3h-5h-4h-5h-4h-4h-5h-4h-4h-5h-4h-5h-5h-3h-5h-5h-3h-5h-5h-5h-4h-4h-5h-5h-5h-5h-5h-5h-4h-5h-5h-6 h-7q0 19 -1.5 30t-11 22t-27.5 11q-14 0 -26 -7.5t-12 -21.5q0 -17 28 -40t68 -49.5t80 -59.5t67.5 -80.5t27.5 -102.5q0 -71 -50 -125.5t-126 -71.5v-110h-121v109q-67 14 -121 71t-54 156z" />
<glyph unicode="%" horiz-adv-x="634" d="M60 482v104q0 38 32.5 65t75.5 27t75 -27t32 -65v-104q0 -39 -32 -65.5t-75 -26.5t-75.5 26.5t-32.5 65.5zM111 0l260 670h167l-260 -670h-167zM151 512q0 -28 10 -30q4 -2 7 -2q6 0 10 2t5 8t1 8v14v43q0 28 -10 31q-2 1 -6 1q-6 0 -10 -2t-5.5 -8t-1.5 -9v-13v-43z M371 82v103q0 39 32.5 66t74.5 27q44 0 76 -27t32 -66v-103q0 -38 -32 -65.5t-76 -27.5q-42 0 -74.5 27.5t-32.5 65.5zM462 109q0 -11 0.5 -16t4.5 -9t11 -4q8 0 12 5t4.5 9.5t0.5 18.5v42q0 28 -9 31q-3 2 -8 2q-9 0 -12.5 -5t-3.5 -10v-18v-42v-4z" />
<glyph unicode="&#x26;" horiz-adv-x="670" d="M40 206q0 110 111 187q-54 83 -54 167q0 79 53 127.5t136 48.5q73 0 125 -49t52 -121q0 -43 -21 -82t-44 -60.5t-65 -55.5q54 -73 105 -119q35 56 61 129l128 -36q-44 -117 -85 -177q44 -38 94 -39v-136q-60 0 -94.5 13t-88.5 57q-72 -70 -178 -70t-170.5 54.5 t-64.5 161.5zM189 212q0 -34 27 -60t64 -26q41 0 75 26q-73 61 -124 135q-42 -37 -42 -75zM232 569q0 -47 28 -97q68 52 68 99q0 28 -13 44.5t-35 16.5q-17 0 -32.5 -17t-15.5 -46z" />
<glyph unicode="'" horiz-adv-x="266" d="M60 433v291h146v-230z" />
<glyph unicode="(" horiz-adv-x="399" d="M60 335.5q0 77.5 23 183t45 173.5l23 67h187q-97 -276 -97 -424q0 -143 98 -425h-187q-10 28 -25.5 74.5t-41 160t-25.5 191z" />
<glyph unicode=")" horiz-adv-x="399" d="M60 -90q99 282 99 425q0 148 -97 424h186q10 -28 25 -74.5t40.5 -159t25.5 -190t-23 -184t-46 -173.5l-23 -68h-187z" />
<glyph unicode="*" horiz-adv-x="401" d="M60 560l74 28l-74 29l46 79l56 -53l-6 82h90l-6 -82l55 53l46 -79l-74 -29l74 -28l-46 -78l-55 52l6 -81h-90l6 81l-56 -52z" />
<glyph unicode="+" horiz-adv-x="544" d="M60 273v152h136v136h151v-135h137v-153h-137v-135h-151v135h-136z" />
<glyph unicode="," horiz-adv-x="266" d="M60 -121v290h146v-229z" />
<glyph unicode="-" horiz-adv-x="514" d="M60 273v153h394v-151z" />
<glyph unicode="." horiz-adv-x="266" d="M60 0v169h146v-169h-146z" />
<glyph unicode="/" horiz-adv-x="369" d="M-6 -121l200 880h181l-200 -880h-181z" />
<glyph unicode="0" horiz-adv-x="556" d="M54 192v285q0 84 66 144t158 60t158 -60t66 -144v-285q0 -84 -66 -144t-158 -60t-158 60t-66 144zM236 192q0 -15 12.5 -26.5t29.5 -11.5t30 11.5t13 26.5v285q0 15 -13 26.5t-30 11.5t-29.5 -11.5t-12.5 -26.5v-285z" />
<glyph unicode="1" horiz-adv-x="375" d="M42 393v170l137 106h136v-669h-182v459z" />
<glyph unicode="2" horiz-adv-x="544" d="M48 0v169l258 259q15 12 15 29v21q0 16 -13 28t-31 12t-32.5 -11.5t-14.5 -30.5v-43h-182v43q0 87 65.5 146t158.5 59q92 0 161 -62t69 -146q0 -28 -6.5 -52t-24.5 -49t-29 -37t-41 -41t-38 -37l-88 -88h227v-169h-454z" />
<glyph unicode="3" horiz-adv-x="555" d="M42 202v19h182v-15q0 -26 12.5 -40.5t29.5 -14.5q47 0 47 53v20q0 60 -53 60v115q28 0 41.5 17t13.5 33v37q0 16 -12.5 26.5t-32.5 10.5q-46 0 -46 -40v-28h-164v25q0 86 62.5 143.5t155.5 57.5q90 0 153.5 -64.5t63.5 -147.5q0 -32 -17.5 -71t-41.5 -53q29 -13 53 -56 t24 -85q0 -85 -70 -150.5t-165 -65.5q-89 0 -162.5 62.5t-73.5 151.5z" />
<glyph unicode="4" horiz-adv-x="548" d="M42 140v161l126 368h182l-126 -367h58v91h181v-91h49v-162h-49v-140h-181v140h-240z" />
<glyph unicode="5" horiz-adv-x="550" d="M54 171h189q0 -6 11 -11.5t28 -5.5q19 0 32 11.5t13 26.5v63q0 15 -13 27t-32 12q-36 0 -39 -22h-181v397h428v-169h-247v-83q14 19 69 19q75 0 135.5 -50t60.5 -131v-63q0 -84 -68.5 -144t-161.5 -60q-96 0 -160 64.5t-64 118.5z" />
<glyph unicode="6" horiz-adv-x="544" d="M42 192v57q0 41 60 187.5t101 232.5h198l-88 -220q79 -15 134 -70.5t55 -129.5v-57q0 -84 -68.5 -144t-161.5 -60t-161.5 60t-68.5 144zM224 192q0 -14 14.5 -26t34 -12t34 12t14.5 26v57q0 15 -14.5 27t-34 12t-34 -12t-14.5 -27v-57z" />
<glyph unicode="7" horiz-adv-x="514" d="M30 457v212h454v-169l-212 -500h-181l211 500h-90v-43h-182z" />
<glyph unicode="8" horiz-adv-x="538" d="M42 201q0 81 62 145q-14 22 -21.5 33.5t-15 37t-7.5 55.5q0 83 61 145t149 62q87 0 147.5 -62t60.5 -145q0 -63 -44 -126q62 -64 62 -145q0 -86 -66 -149.5t-160 -63.5q-96 0 -162 63.5t-66 149.5zM230 184q0 -15 10 -26.5t29 -11.5t29.5 11.5t10.5 26.5v59 q0 15 -10.5 26.5t-28.5 11.5q-20 0 -30 -11.5t-10 -26.5v-59zM230 430q0 -15 10 -27t28.5 -12t29.5 12t11 27v58q0 14 -10.5 26t-28.5 12t-29 -12t-11 -26v-58z" />
<glyph unicode="9" horiz-adv-x="544" d="M42 419v59q0 83 69 143t161 60q93 0 161.5 -59t68.5 -144v-59q0 -39 -58 -165q-13 -30 -48 -121.5t-55 -132.5h-197l87 219q-79 15 -134 71t-55 129zM224 419q0 -15 14.5 -27t34 -12t34 12t14.5 27v58q0 14 -14.5 26t-34 12t-34 -12t-14.5 -26v-58z" />
<glyph unicode=":" horiz-adv-x="266" d="M60 0v169h146v-169h-146zM60 330v170h146v-170h-146z" />
<glyph unicode=";" horiz-adv-x="266" d="M60 -121v290h146v-229zM60 330v170h146v-170h-146z" />
<glyph unicode="&#x3c;" horiz-adv-x="757" d="M24 334l212 213h256l-121 -121h344v-182h-344l121 -121h-255z" />
<glyph unicode="=" horiz-adv-x="514" d="M60 184v151h394v-151h-394zM60 396v151h394v-151h-394z" />
<glyph unicode="&#x3e;" horiz-adv-x="757" d="M42 243v182h344l-121 122h257l211 -213l-213 -211h-255l121 120h-344z" />
<glyph unicode="?" horiz-adv-x="508" d="M24 454v22q0 87 65 146t158 59q92 0 158.5 -58.5t66.5 -142.5q0 -73 -53 -127l-79 -80v-48l-171 1v124l109 106q12 12 12 24q0 16 -12.5 27t-30.5 11q-17 0 -29 -11.5t-12 -30.5v-22h-182zM169 0v169h170v-169h-170z" />
<glyph unicode="@" horiz-adv-x="803" d="M45 362q0 157 109 265.5t263 108.5q136 0 238 -85.5t102 -220.5q0 -63 -20.5 -115t-50 -83.5t-66 -53.5t-65.5 -30.5t-49 -8.5q-46 0 -60 39q-43 -39 -88 -39q-66 0 -116 54.5t-50 127.5q0 95 57.5 167.5t149.5 72.5q68 0 108 -44l7 34h110l-54 -269q-3 -10 -3 -16 q0 -9 3 -9q30 0 56.5 38t26.5 108q0 105 -64.5 166t-174.5 61q-112 0 -180 -75.5t-68 -192.5q0 -121 73 -193.5t191 -72.5q102 0 182 67h114q-120 -173 -304 -173q-157 0 -267 106t-110 266zM322 335q0 -31 17 -50.5t45 -19.5q38 0 64 31.5t26 73.5q0 31 -17.5 49.5 t-45.5 18.5q-37 0 -63 -29.5t-26 -73.5z" />
<glyph unicode="A" horiz-adv-x="613" d="M10 0l207 726h184l203 -726h-156l-39 151h-202l-41 -151h-156zM242 286h132l-64 251z" />
<glyph unicode="B" horiz-adv-x="670" d="M79 0v725h268q241 0 247 -183v-9q0 -103 -88 -151q58 -27 81 -68.5t23 -117.5q0 -91 -66.5 -143.5t-198.5 -52.5h-266zM234 132h121q52 0 75.5 22.5t23.5 68.5q0 90 -99 90h-121v-181zM234 445h121q41 0 62 20.5t21 53.5t-21 53.5t-62 20.5h-121v-148z" />
<glyph unicode="C" horiz-adv-x="613" d="M30 363q0 175 76 274t215 99q104 0 167 -50.5t90 -155.5l-142 -34q-34 103 -119 103q-60 0 -94.5 -58.5t-36.5 -177.5q-1 -237 135 -237q43 0 71 21.5t58 84.5l145 -38q-69 -204 -274 -204q-139 0 -215 98t-76 275z" />
<glyph unicode="D" horiz-adv-x="670" d="M79 0v725h242q150 0 236.5 -89.5t86.5 -272.5q0 -184 -87.5 -273.5t-235.5 -89.5h-242zM235 137h76q98 0 137.5 60.5t39.5 165.5q0 104 -39.5 165t-137.5 61h-76v-452z" />
<glyph unicode="E" horiz-adv-x="613" d="M85 0v725h480v-136h-325v-144h236v-136h-236v-172h336v-137h-491z" />
<glyph unicode="F" d="M79 0v725h462v-136h-307v-144h229v-136h-229v-309h-155z" />
<glyph unicode="G" horiz-adv-x="670" d="M30 352q0 73 15 137t48 121.5t94 91.5t145 34q204 0 267 -200l-144 -39q-27 57 -56.5 79.5t-76.5 22.5q-65 0 -100.5 -63t-35.5 -180q0 -109 37 -169.5t99 -60.5q56 0 91.5 32t41.5 84h-131v137h283v-379h-119v54q-68 -64 -170 -64q-143 0 -215.5 100.5t-72.5 261.5z" />
<glyph unicode="H" horiz-adv-x="724" d="M85 0v725h156v-280h244v280h156v-725h-156v301h-244v-301h-156z" />
<glyph unicode="I" horiz-adv-x="356" d="M97 0v725h163v-725h-163z" />
<glyph unicode="J" horiz-adv-x="446" d="M-8 99l107 84q20 -35 34.5 -46t33.5 -11q42 0 42 72v527h153v-524q0 -103 -49.5 -157t-145.5 -54q-108 0 -175 109z" />
<glyph unicode="K" horiz-adv-x="670" d="M79 0v725h156v-288l214 288h183l-207 -276l234 -449h-174l-167 324l-83 -105v-219h-156z" />
<glyph unicode="L" d="M79 0v725h153v-588h300v-137h-453z" />
<glyph unicode="M" horiz-adv-x="836" d="M81 0v725h209l127 -461l127 461h211v-725h-139v486l-139 -486h-119l-137 486v-486h-140z" />
<glyph unicode="N" horiz-adv-x="724" d="M81 0v725h157l257 -449v449h149v-725h-147l-267 471v-471h-149z" />
<glyph unicode="O" horiz-adv-x="670" d="M30 363q0 177 78 275t226 98t226.5 -98t78.5 -275t-78.5 -275t-226.5 -98t-226 98t-78 275zM186 363q0 -122 36.5 -179.5t111.5 -57.5t111.5 57.5t36.5 179.5t-36.5 179t-111.5 57q-146 0 -148 -236z" />
<glyph unicode="P" horiz-adv-x="613" d="M68 0v725h265q121 0 188.5 -54t67.5 -166.5t-67.5 -166.5t-188.5 -54h-109v-284h-156zM224 416h94q67 0 91.5 22t24.5 66.5t-24.5 66.5t-91.5 22h-94v-177z" />
<glyph unicode="Q" horiz-adv-x="670" d="M30 361.5q0 176.5 79 275.5t226.5 99t225.5 -99t78 -275q0 -161 -64 -257q28 -22 83 -23v-136q-72 0 -103 13.5t-75 61.5q-59 -32 -145 -32q-147 0 -226 98t-79 274.5zM186 362q0 -122 36.5 -179.5t112.5 -57.5q38 0 67 15q-31 38 -79 49v143q98 -11 150 -77 q10 46 10 107q0 237 -147.5 237t-149.5 -237z" />
<glyph unicode="R" horiz-adv-x="670" d="M79 0v725h288q117 0 175 -61t58 -158q1 -67 -30.5 -116.5t-91.5 -71.5l156 -318h-173l-132 286h-94v-286h-156zM235 417h86q71 0 97.5 21.5t26.5 67.5q0 87 -101 87h-109v-176z" />
<glyph unicode="S" horiz-adv-x="613" d="M33 174l129 58q29 -59 62 -86t83 -27q107 0 107 81q0 24 -20.5 45t-38 29.5t-48.5 21.5q-7 4 -44.5 19t-51 21t-44.5 22.5t-45 31t-32.5 35t-25.5 46t-7 55.5q0 97 68.5 153.5t166.5 56.5q88 0 156.5 -45.5t103.5 -132.5l-143 -45q-35 93 -117 93q-88 0 -88 -65 q0 -32 50 -59q19 -11 64 -28.5t57 -23.5q85 -34 135.5 -82t50.5 -130q0 -113 -66.5 -170.5t-187.5 -57.5q-90 0 -165 49t-109 135z" />
<glyph unicode="T" d="M21 590v136h517v-136h-181v-590h-156v590h-180z" />
<glyph unicode="U" horiz-adv-x="724" d="M85 273v452h156v-456q0 -80 29 -111.5t93 -31.5t93 31.5t29 111.5v456h156v-452q0 -77 -22 -133.5t-62 -88.5t-88.5 -46.5t-105.5 -14.5q-122 0 -200 67.5t-78 215.5z" />
<glyph unicode="V" d="M6 725h155l116 -484l120 484h155l-190 -725h-166z" />
<glyph unicode="W" horiz-adv-x="836" d="M17 725h150l81 -430l91 430h157l85 -430l87 430h150l-151 -725h-155l-95 457l-92 -457h-156z" />
<glyph unicode="X" d="M0 0l194 371l-182 354h171l97 -201l96 201h171l-183 -354l194 -371h-171l-107 223l-109 -223h-171z" />
<glyph unicode="Y" d="M4 725h164l112 -260l111 260h164l-198 -436v-289h-156v289z" />
<glyph unicode="Z" d="M16 0v129l313 460h-290v136h491v-122l-324 -466h326v-137h-516z" />
<glyph unicode="[" horiz-adv-x="375" d="M60 -182v1033h273v-171h-91v-691h91v-171h-273z" />
<glyph unicode="\" horiz-adv-x="369" d="M-6 759h181l200 -880h-181z" />
<glyph unicode="]" horiz-adv-x="375" d="M42 -11h91v691h-91v171h273v-1033h-273v171z" />
<glyph unicode="^" horiz-adv-x="602" d="M64 348l183 377h109l184 -377h-131l-108 233l-107 -233h-130z" />
<glyph unicode="_" horiz-adv-x="502" d="M0 -75h502v-51h-502v51z" />
<glyph unicode="`" horiz-adv-x="279" d="M-28 736h155l94 -148h-102z" />
<glyph unicode="a" horiz-adv-x="502" d="M18 134q0 90 71 139t212 67v33q0 21 -16 34.5t-44 13.5q-35 0 -58.5 -16.5t-48.5 -49.5l-93 71q28 48 85 78q53 28 108 28h7q106 -2 153.5 -50t47.5 -164v-318h-136v33q-68 -43 -143 -43q-69 0 -107 42.5t-38 101.5zM159 149q0 -47 45 -47q43 0 97 47v87q-28 -5 -43.5 -9 t-43.5 -14t-41.5 -26t-13.5 -38z" />
<glyph unicode="b" d="M64 0v725h142v-228q51 41 110 41q98 0 154 -78.5t56 -181.5q0 -126 -54.5 -207t-155.5 -81q-68 0 -128 54l-10 -44h-114zM206 149q3 -4 11.5 -11t12.5 -9.5t11 -7.5t12.5 -6.5t14 -3t18.5 -1.5q47 0 73 39t26 115q0 153 -99 153q-42 0 -80 -36v-232z" />
<glyph unicode="c" horiz-adv-x="502" d="M24 261.5q0 123.5 60.5 197t165.5 73.5q75 0 130.5 -39t79.5 -113l-119 -46q-19 42 -37 60.5t-54 18.5q-85 0 -85 -152q0 -81 22 -116.5t67 -35.5q32 0 55 20.5t46 64.5l108 -63q-39 -77 -89 -109q-49 -32 -120 -32h-4q-106 0 -166 74t-60 197.5z" />
<glyph unicode="d" d="M33 278q0 103 56 181.5t153 78.5q60 0 111 -41v228h141v-725h-121l-5 41q-58 -51 -126 -51q-102 0 -155.5 81t-53.5 207zM173 264q0 -76 26 -115t73 -39q10 0 19 2t14 3t12.5 6t11 7.5t13 10t11.5 10.5v232q-41 36 -81 36q-99 0 -99 -153z" />
<glyph unicode="e" horiz-adv-x="502" d="M24 261.5q0 123.5 60 196.5t166 74q100 0 156.5 -71t56.5 -171v-60h-297q3 -64 28 -92.5t63 -28.5q35 0 56.5 14t50.5 49l104 -66q-40 -61 -93.5 -88.5t-130.5 -27.5q-101 0 -160.5 74t-59.5 197.5zM166 334h166q-4 42 -26 64.5t-57 22.5q-36 0 -58 -22.5t-25 -64.5z" />
<glyph unicode="f" horiz-adv-x="333" d="M12 408v121h67v51q0 84 35 120t112 36h87v-121h-42q-33 0 -43.5 -9t-10.5 -34v-43h98v-121h-98v-408h-138v408h-67z" />
<glyph unicode="g" horiz-adv-x="502" d="M12 -58q0 76 68 99q-52 27 -52 78q0 56 68 95q-63 57 -63 131q0 76 55 131.5t152 55.5q66 0 121 -40q34 40 121 40h8v-105q-58 0 -71 -5q21 -35 21 -84q0 -79 -52 -127t-146 -48h-18h-18h-14q-9 0 -14 -1t-10 -3.5t-6.5 -6t-1.5 -8.5q0 -16 41 -22q18 -2 58.5 -4.5 t53.5 -3.5q77 -8 126 -38t49 -105q0 -67 -64.5 -114.5t-177.5 -47.5q-106 0 -170 33t-64 100zM144 -44q0 -21 25 -32t96 -11q33 0 55 9.5t29 18.5t7 15q0 8 -9 17.5t-43 20t-87 10.5q-39 0 -56 -16t-17 -32zM165 347.5q0 -30.5 20.5 -51t52.5 -20.5q29 0 50 20.5t21 51 t-21 51.5t-50 21q-32 0 -52.5 -21t-20.5 -51.5z" />
<glyph unicode="h" d="M64 0v725h140v-239q69 52 132 52q78 0 118 -49t40 -131v-358h-141v340q0 46 -12 61.5t-37 15.5q-58 0 -100 -46v-371h-140z" />
<glyph unicode="i" horiz-adv-x="301" d="M76 0v529h149v-529h-149zM76 599v137h149v-137h-149z" />
<glyph unicode="j" horiz-adv-x="291" d="M4 -46q48 -5 60 -5q18 0 18 39v540h158v-561q0 -87 -37.5 -128.5t-117.5 -41.5q-32 0 -81 13v144zM82 598v138h158v-138h-158z" />
<glyph unicode="k" horiz-adv-x="502" d="M64 0v725h142v-374l132 178h164l-156 -202l161 -327h-151l-106 217l-44 -54v-163h-142z" />
<glyph unicode="l" horiz-adv-x="301" d="M76 0v725h149v-725h-149z" />
<glyph unicode="m" horiz-adv-x="836" d="M64 0v523h133v-40q63 49 141 49q86 0 127 -65q71 65 170 65q53 0 94.5 -38t41.5 -124v-370h-143v361q0 52 -50 52h-1q-35 0 -87 -48v-365h-144v361q0 52 -48 52h-1q-37 0 -89 -48v-365h-144z" />
<glyph unicode="n" d="M64 0v523h132v-44q80 53 140 53q78 0 118 -48t40 -131v-353h-141v336q0 45 -12 61t-37 16q-57 0 -100 -45v-368h-140z" />
<glyph unicode="o" horiz-adv-x="502" d="M24 261.5q0 123.5 60.5 197t167.5 73.5q105 0 165.5 -73.5t60.5 -197t-60.5 -197.5t-165.5 -74q-107 0 -167.5 74t-60.5 197.5zM166 261q0 -81 21 -116.5t65 -35.5q84 0 84 152q0 81 -21 116.5t-63 35.5q-44 0 -65 -35.5t-21 -116.5z" />
<glyph unicode="p" d="M64 -191v714h137v-33q52 42 115 42q101 0 155.5 -81t54.5 -207q0 -102 -56 -181t-154 -79q-59 0 -110 41v-216h-142zM206 140q40 -35 80 -35q99 0 99 153t-99 153q-13 0 -21 -1t-17.5 -6.5t-13 -7.5t-15 -11.5t-13.5 -11.5v-233z" />
<glyph unicode="q" d="M33 244q0 126 53.5 207t155.5 81q68 0 128 -54l11 45h113v-714h-141v216q-51 -41 -111 -41q-97 0 -153 79t-56 181zM173 258q0 -153 99 -153q40 0 81 35v233q-3 2 -10.5 8.5t-10.5 9t-9 7t-10 6t-11 4t-14 3t-16 0.5q-99 0 -99 -153z" />
<glyph unicode="r" horiz-adv-x="333" d="M56 0v523h127v-58q44 66 136 67v-151q-18 4 -31 4q-23 0 -47 -17t-36.5 -33t-12.5 -20v-315h-136z" />
<glyph unicode="s" horiz-adv-x="446" d="M18 105l97 73q54 -76 111 -76q27 0 43.5 12.5t16.5 32t-33 37.5q-13 7 -45.5 18.5t-38.5 14.5q-59 24 -94.5 59.5t-35.5 98.5q0 74 51.5 115.5t122.5 41.5q114 0 189 -88l-90 -81q-54 58 -92 58q-54 0 -54 -37q0 -21 32 -37q10 -5 23.5 -10t31.5 -11.5t29 -10.5 q58 -23 93.5 -60t35.5 -104q0 -80 -53 -120.5t-138 -40.5q-124 0 -202 115z" />
<glyph unicode="t" horiz-adv-x="333" d="M12 408v120h67v167h138v-167h94v-120h-94v-274q0 -14 6 -19t24 -5q11 0 64 13v-124q-71 -9 -102 -9q-130 0 -130 129v289h-67z" />
<glyph unicode="u" d="M64 168v355h140v-337q0 -44 12.5 -60.5t37.5 -16.5q56 0 99 46v368h141v-523h-131v44q-76 -54 -140 -54q-79 0 -119 48t-40 130z" />
<glyph unicode="v" horiz-adv-x="446" d="M6 523h143l74 -306l75 306h141l-147 -523h-142z" />
<glyph unicode="w" horiz-adv-x="670" d="M7 523h138l61 -275l64 275h131l60 -275l64 275h138l-135 -523h-127l-67 276l-65 -276h-126z" />
<glyph unicode="x" horiz-adv-x="446" d="M-4 0l152 271l-147 252h158l62 -125l63 125h155l-146 -252l157 -271h-152l-75 143l-74 -143h-153z" />
<glyph unicode="y" horiz-adv-x="446" d="M5 523h143l75 -282l76 282h141l-159 -522q-34 -110 -78 -151t-124 -41q-27 0 -69 6v123q31 -6 61 -6q37 0 53 14t28 49q4 11 4 24q0 6 -14 57z" />
<glyph unicode="z" horiz-adv-x="446" d="M18 0v100l226 303h-206v120h388v-101l-225 -303h227v-119h-410z" />
<glyph unicode="{" horiz-adv-x="446" d="M42 277v172h60q13 0 21.5 8t8.5 20v231q0 59 44 101t107 42h121v-171h-91v-260q0 -3 -52 -57l52 -57v-317h91v-171h-121q-63 0 -107 42t-44 101v288q0 12 -8.5 20t-21.5 8h-60z" />
<glyph unicode="|" horiz-adv-x="302" d="M60 -182v1033h182v-1033h-182z" />
<glyph unicode="}" horiz-adv-x="434" d="M42 -11h91v317q30 32 52 57q-52 54 -52 57v260h-91v171h121q63 0 107.5 -42t44.5 -101v-231q0 -12 8.5 -20t21.5 -8h59v-172h-59q-13 0 -21.5 -8t-8.5 -20v-288q0 -59 -44.5 -101t-107.5 -42h-121v171z" />
<glyph unicode="~" horiz-adv-x="602" d="M69 261q46 87 131 87q25 0 52.5 -8t63 -23.5t49.5 -20.5q22 -8 38 -8q17 0 32 11t25.5 23.5t29.5 41.5l44 -104q-21 -28 -35 -43t-41.5 -29.5t-60.5 -14.5q-38 0 -97.5 31t-101.5 31q-26 0 -44 -19t-40 -62z" />
<glyph unicode="&#xa2;" horiz-adv-x="613" d="M82 261q0 125 60.5 199.5t166.5 74.5q32 0 55 -5l35 100h80l-46 -130q58 -37 85 -119l-119 -47q-5 13 -13 30l-90 -256h16q32 0 55 20.5t46 63.5l110 -63q-41 -77 -91.5 -110.5t-122.5 -31.5q-26 0 -54 6l-42 -119h-80l52 148q-103 69 -103 239zM214 261q0 -65 18 -104 l91 257q-1 0 -6 0.5t-8 0.5q-95 0 -95 -154z" />
<glyph unicode="&#xa3;" horiz-adv-x="513" d="M30 238v109h51v55q0 103 68.5 159t162.5 56q55 0 92.5 -14.5t74.5 -51.5l-99 -98q-33 30 -68 30q-80 0 -80 -84v-52h80v-109h-80v-104h247v-134h-398v238h-51z" />
<glyph unicode="&#xa5;" horiz-adv-x="613" d="M21 725h145l140 -287l142 287h145l-130 -257h83v-115h-141l-21 -42h162v-115h-173v-196h-133v196h-173v115h162l-21 42h-141v115h84z" />
<glyph unicode="&#xa8;" horiz-adv-x="514" d="M99 621v111h95v-111h-95zM321 621v111h94v-111h-94z" />
<glyph unicode="&#xa9;" horiz-adv-x="740" d="M59 306.5q0 129.5 91.5 220t220 90.5t219.5 -90.5t91 -220t-91 -220.5t-219.5 -91t-220 91t-91.5 220.5zM133 306q0 -102 69 -172t168 -70t168 70t69 172t-69 172t-168 70t-168 -70t-69 -172zM219 306q0 79 43 126.5t113 47.5q63 0 120 -49l-47 -49q-38 33 -73 33 q-85 0 -85 -109t85 -109q35 0 73 32l47 -49q-57 -48 -120 -48q-70 0 -113 47.5t-43 126.5z" />
<glyph unicode="&#xab;" d="M57 258l123 164h136l-126 -163l126 -159h-136zM252 258l122 164h135l-125 -163l127 -159h-137z" />
<glyph unicode="&#xad;" horiz-adv-x="514" d="M60 273v153h394v-151z" />
<glyph unicode="&#xae;" horiz-adv-x="740" d="M59 306.5q0 129.5 91.5 220t220 90.5t219.5 -90.5t91 -220t-91 -220.5t-219.5 -91t-220 91t-91.5 220.5zM132 306q0 -103 69 -173t169.5 -70t168.5 70t68 173q0 102 -69 172t-168 70q-100 0 -169 -70t-69 -172zM258 136v341h130q49 0 80.5 -31t31.5 -76q0 -68 -62 -93 l74 -141h-81l-68 130h-33v-130h-72zM330 327h50q22 0 35 12.5t13 30.5t-13 31t-35 13h-50v-87z" />
<glyph unicode="&#xb4;" horiz-adv-x="514" d="M203 616l78 167h116l-114 -167h-80z" />
<glyph unicode="&#xb8;" horiz-adv-x="279" d="M21 -203l18 41q43 -16 78 -16q52 0 52 42q0 32 -42 32q-8 0 -25 -2l-17 -4l-21 19l59 91h54l-44 -63q24 5 36 5q38 0 63.5 -19.5t25.5 -56.5q0 -48 -39 -72t-88 -24q-46 0 -110 27z" />
<glyph unicode="&#xbb;" d="M48 100l126 164l-126 158h136l123 -158l-123 -164h-136zM242 422h137l122 -158l-122 -164h-136l126 164z" />
<glyph unicode="&#x2c6;" horiz-adv-x="279" d="M-38 588l114 148h125l115 -148h-113l-64 82l-64 -82h-113z" />
<glyph unicode="&#x2da;" horiz-adv-x="279" d="M31 696q0 45 31.5 77t76.5 32t77 -32t32 -77t-31.5 -76.5t-77.5 -31.5q-45 0 -76.5 31.5t-31.5 76.5zM86 696q0 -23 15 -39t38 -16t39 16t16 39t-16 38.5t-39 15.5t-38 -15.5t-15 -38.5z" />
<glyph unicode="&#x2dc;" horiz-adv-x="279" d="M-45 597q9 50 38 86t77 36q30 0 78.5 -18.5t62.5 -18.5q18 0 30.5 12.5t16.5 30.5h65q-27 -122 -111 -122q-26 0 -78 17.5t-70 17.5q-30 0 -46 -41h-63z" />
<glyph unicode="&#x5b0;" horiz-adv-x="0" d="M-48 -159q0 21 14.5 35t33.5 14t33.5 -14t14.5 -35v2q0 -20 -14.5 -33.5t-33.5 -13.5q-21 0 -34.5 13t-13.5 32zM-48 -299q0 19 14.5 33t33.5 14t33.5 -14t14.5 -33v1q0 -19 -14.5 -33.5t-33.5 -14.5t-33.5 14t-14.5 33z" />
<glyph unicode="&#x5b1;" horiz-adv-x="0" d="M-201 -158.5q0 19.5 14 34t33.5 14.5t33.5 -14t14 -33h1q0 -20 -14.5 -33.5t-34 -13.5t-33.5 13t-14 32.5zM-113 -299q0 19 15 33t34 14t33 -14t14 -33v1q0 -19 -14 -33.5t-33 -14.5t-34 14t-15 33zM-48 -159q0 21 14.5 35t33.5 14t33 -14t14 -33h1q0 -20 -14.5 -33.5 t-33.5 -13.5q-21 0 -34.5 13t-13.5 32zM105 -159q0 21 14 35t35 14q19 0 33 -14.5t14 -34.5v2q0 -20 -14 -33.5t-33 -13.5q-21 0 -35 13t-14 32zM105 -299q0 19 14.5 33t34 14t33.5 -14t14 -33v1q0 -19 -14 -33.5t-33.5 -14.5t-34 14t-14.5 33z" />
<glyph unicode="&#x5b2;" horiz-adv-x="0" d="M-185 -121h216v-73h-216v73zM90 -158.5q0 19.5 13.5 34t33.5 14.5t34 -14t14 -35v2q0 -20 -14 -33.5t-33 -13.5q-21 0 -34.5 13t-13.5 32.5zM90 -299q0 19 13.5 33t33 14t34 -14t14.5 -33v1q0 -19 -14 -33.5t-33 -14.5t-33.5 14t-14.5 33z" />
<glyph unicode="&#x5b3;" horiz-adv-x="0" d="M-178 -121h217v-73h-72v-141h-73v141h-72v73zM97 -159q0 21 14.5 35t34 14t34 -14t14.5 -35v2q0 -20 -14.5 -33.5t-34.5 -13.5t-34 13t-14 32zM97 -299q0 19 14.5 33t34 14t34 -14t14.5 -33v1q0 -19 -14.5 -33.5t-34 -14.5t-34 14t-14.5 33z" />
<glyph unicode="&#x5b4;" horiz-adv-x="0" d="M-48 -159q0 21 14.5 35t33.5 14t33.5 -14t14.5 -35v2q0 -20 -14.5 -33.5t-33.5 -13.5q-21 0 -34.5 13t-13.5 32z" />
<glyph unicode="&#x5b5;" horiz-adv-x="0" d="M-136 -158.5q0 19.5 14 34t33.5 14.5t33.5 -14t14 -33.5t-14 -33t-32 -13.5q-21 0 -35 13t-14 32.5zM41 -158.5q0 19.5 14 34t32 14.5q19 0 34 -14t15 -35v2q0 -20 -14 -33.5t-33.5 -13.5t-33.5 13t-14 32.5z" />
<glyph unicode="&#x5b6;" horiz-adv-x="0" d="M-136 -158.5q0 19.5 14 34t33.5 14.5t33.5 -14t14 -33.5t-14 -33t-32 -13.5q-21 0 -35 13t-14 32.5zM-48 -305q0 19 14.5 33t33.5 14t33.5 -14t14.5 -33v1q0 -20 -14.5 -34t-33.5 -14t-33.5 14t-14.5 33zM41 -158.5q0 19.5 14 34t32 14.5q19 0 34 -14t15 -35v2 q0 -20 -14 -33.5t-33.5 -13.5t-33.5 13t-14 32.5z" />
<glyph unicode="&#x5b7;" horiz-adv-x="0" d="M-132 -85h264v-72h-264v72z" />
<glyph unicode="&#x5b8;" horiz-adv-x="0" d="M-132 -121h264v-73h-96v-141h-72v141h-96v73z" />
<glyph unicode="&#x5b9;" horiz-adv-x="0" d="M-48 704.5q0 19.5 14.5 34t33.5 14.5t33.5 -14t14.5 -34t-14.5 -34t-33.5 -14t-33.5 14t-14.5 33.5z" />
<glyph unicode="&#x5bb;" horiz-adv-x="0" d="M-48 -159q0 21 14.5 35t33.5 14t33 -14t14 -33h1q0 -20 -14.5 -33.5t-33.5 -13.5q-21 0 -34.5 13t-13.5 32zM85 -222.5q0 19.5 14 34t33 14.5t33.5 -14t14.5 -33.5t-14 -34t-33 -14.5t-33.5 14t-14.5 33.5zM218 -286.5q0 19.5 14 33t33 13.5t33.5 -13.5t14.5 -33.5v1 q0 -19 -13.5 -33.5t-33 -14.5t-34 14t-14.5 33.5z" />
<glyph unicode="&#x5bc;" horiz-adv-x="0" d="M-48 290.5q0 19.5 14.5 34t33.5 14.5t33.5 -14.5t14.5 -34t-14.5 -34t-33.5 -14.5t-33.5 14.5t-14.5 34z" />
<glyph unicode="&#x5bd;" horiz-adv-x="1210" />
<glyph unicode="&#x5be;" horiz-adv-x="423" d="M60 518v151h303v-151h-303z" />
<glyph unicode="&#x5bf;" horiz-adv-x="0" d="M-126 674v73h252v-73h-252z" />
<glyph unicode="&#x5c1;" horiz-adv-x="0" d="M-48 704.5q0 19.5 14.5 34t33.5 14.5t33.5 -14.5t14.5 -34t-14.5 -34t-33.5 -14.5t-33.5 14.5t-14.5 34z" />
<glyph unicode="&#x5c2;" horiz-adv-x="0" d="M-48 704.5q0 19.5 14.5 34t33.5 14.5t33.5 -14.5t14.5 -34t-14.5 -34t-33.5 -14.5t-33.5 14.5t-14.5 34z" />
<glyph unicode="&#x5d0;" horiz-adv-x="594" d="M60 669h180l102 -255l6 12v243h176v-327l-100 -100l110 -242h-179l-103 273l-6 -9v-264h-176v345l102 103z" />
<glyph unicode="&#x5d1;" horiz-adv-x="544" d="M48 0v169h223v331h-211v169h393v-500h49v-169h-454z" />
<glyph unicode="&#x5d2;" horiz-adv-x="473" d="M30 0l43 304h153l-26 196h-75v169h232l92 -669h-180l-34 238h-9l-23 -238h-173z" />
<glyph unicode="&#x5d3;" horiz-adv-x="520" d="M24 500v169h454v-169h-50v-500h-181v500h-223z" />
<glyph unicode="&#x5d4;" horiz-adv-x="574" d="M60 0v396h182v-396h-182zM60 500v169h454v-669h-181v500h-273z" />
<glyph unicode="&#x5d5;" horiz-adv-x="302" d="M60 0v669h182v-669h-182z" />
<glyph unicode="&#x5d6;" horiz-adv-x="405" d="M36 500v169h321v-169h-56q-1 -3 -3 -7.5t-4 -23t-1 -39.5l30 -430h-181l-31 428q-1 16 1.5 34t4.5 28l3 10h-84z" />
<glyph unicode="&#x5d7;" horiz-adv-x="574" d="M60 0v669h454v-669h-181v500h-91v-500h-182z" />
<glyph unicode="&#x5d8;" horiz-adv-x="574" d="M60 0v669h182v-500h91v331h-51l23 169h119q37 0 63.5 -26.5t26.5 -64.5v-578h-454z" />
<glyph unicode="&#x5d9;" horiz-adv-x="320" d="M30 500v169h242v-427h-181v258h-61z" />
<glyph unicode="&#x5da;" horiz-adv-x="506" d="M36 500v169h410v-790h-181v621h-229z" />
<glyph unicode="&#x5db;" horiz-adv-x="537" d="M54 0v169h241v331h-241v169h423v-578q0 -38 -26.5 -64.5t-64.5 -26.5h-332z" />
<glyph unicode="&#x5dc;" horiz-adv-x="494" d="M24 500v257h182v-88h240v-486q0 -77 -53 -130t-128 -53h-174v169h174v331h-241z" />
<glyph unicode="&#x5dd;" horiz-adv-x="598" d="M36 500v169h502v-669h-453v500h-49zM266 169h91v331h-91v-331z" />
<glyph unicode="&#x5de;" horiz-adv-x="562" d="M36 500v169h200v-46l54 46h127q38 0 64.5 -26.5t26.5 -64.5v-578h-236v169h55v331h-73l-36 -500h-176l37 500h-43z" />
<glyph unicode="&#x5df;" horiz-adv-x="350" d="M48 500v169h242v-790h-181v621h-61z" />
<glyph unicode="&#x5e0;" horiz-adv-x="385" d="M24 0v169h120v331h-59v169h240v-578q0 -38 -26.5 -64.5t-63.5 -26.5h-211z" />
<glyph unicode="&#x5e1;" horiz-adv-x="540" d="M30 669h481l-40 -581q-3 -37 -29 -62.5t-62 -25.5h-300zM224 500l24 -331h51l24 331h-99z" />
<glyph unicode="&#x5e2;" horiz-adv-x="571" d="M42 0v169h68l-37 500h180l37 -500h46l35 500h176l-40 -579q-2 -38 -27 -64t-61 -26h-377z" />
<glyph unicode="&#x5e3;" horiz-adv-x="562" d="M48 260v409h454v-790h-181v621h-91v-240h-182z" />
<glyph unicode="&#x5e4;" horiz-adv-x="574" d="M60 0v169h273v331h-91v-179h-182v348h454v-578q0 -38 -26.5 -64.5t-63.5 -26.5h-364z" />
<glyph unicode="&#x5e5;" horiz-adv-x="532" d="M48 -121v790h182v-245l91 60v185h181v-267l-272 -184v-339h-182z" />
<glyph unicode="&#x5e6;" horiz-adv-x="515" d="M24 669h194l91 -203h8l1 203h167l-24 -333h-79l92 -167v-169h-434v169h241z" />
<glyph unicode="&#x5e7;" horiz-adv-x="544" d="M42 -121v517h182v-517h-182zM42 500v169h454v-473q0 -77 -54 -136.5t-127 -59.5h-61v169h61v331h-273z" />
<glyph unicode="&#x5e8;" horiz-adv-x="471" d="M24 500v169h236q63 0 107 -40.5t44 -97.5v-531h-181v500h-206z" />
<glyph unicode="&#x5e9;" horiz-adv-x="721" d="M30 669h174l20 -273h43l16 273h170l-27 -443h-189l4 -57h250l37 500h175l-40 -577q-4 -45 -30.5 -68.5t-61.5 -23.5h-494z" />
<glyph unicode="&#x5ea;" horiz-adv-x="623" d="M48 0v169h61v331h-49v169h503v-669h-182v500h-91v-500h-242z" />
<glyph unicode="&#x5f0;" horiz-adv-x="605" d="M362 0v669h182v-669h-182zM60 0v669h182v-669h-182z" />
<glyph unicode="&#x5f1;" horiz-adv-x="623" d="M381 0v669h182v-669h-182zM30 500v169h242v-427h-181v258h-61z" />
<glyph unicode="&#x5f2;" horiz-adv-x="641" d="M351 500v169h242v-427h-181v258h-61zM30 500v169h242v-427h-181v258h-61z" />
<glyph unicode="&#x5f3;" horiz-adv-x="266" d="M60 433v291h146v-230z" />
<glyph unicode="&#x5f4;" horiz-adv-x="459" d="M60 433v291h146v-230zM254 433v291h145v-230z" />
<glyph unicode="&#x2000;" horiz-adv-x="425" />
<glyph unicode="&#x2001;" horiz-adv-x="851" />
<glyph unicode="&#x2002;" horiz-adv-x="425" />
<glyph unicode="&#x2003;" horiz-adv-x="851" />
<glyph unicode="&#x2004;" horiz-adv-x="283" />
<glyph unicode="&#x2005;" horiz-adv-x="212" />
<glyph unicode="&#x2006;" horiz-adv-x="141" />
<glyph unicode="&#x2007;" horiz-adv-x="141" />
<glyph unicode="&#x2008;" horiz-adv-x="106" />
<glyph unicode="&#x2009;" horiz-adv-x="170" />
<glyph unicode="&#x200a;" horiz-adv-x="47" />
<glyph unicode="&#x2010;" horiz-adv-x="514" d="M60 273v153h394v-151z" />
<glyph unicode="&#x2011;" horiz-adv-x="514" d="M60 273v153h394v-151z" />
<glyph unicode="&#x2012;" horiz-adv-x="514" d="M60 273v153h394v-151z" />
<glyph unicode="&#x2013;" horiz-adv-x="514" d="M60 273v153h394v-151z" />
<glyph unicode="&#x2014;" horiz-adv-x="726" d="M60 304v151h606v-151h-606z" />
<glyph unicode="&#x2018;" horiz-adv-x="266" d="M60 433v230l146 61v-291h-146z" />
<glyph unicode="&#x2019;" horiz-adv-x="266" d="M60 433v291h146v-230z" />
<glyph unicode="&#x201a;" horiz-adv-x="279" d="M70 0v154h139v-146l-58 -147h-77l43 139h-47z" />
<glyph unicode="&#x201c;" horiz-adv-x="459" d="M60 433v230l146 61v-291h-146zM254 433v230l145 61v-291h-145z" />
<glyph unicode="&#x201d;" horiz-adv-x="459" d="M60 433v291h146v-230zM254 433v291h145v-230z" />
<glyph unicode="&#x201e;" horiz-adv-x="446" d="M41 0v154h153v-146l-65 -147h-84l48 139h-52zM252 0v154h152v-146l-64 -147h-85l49 139h-52z" />
<glyph unicode="&#x2026;" horiz-adv-x="1004" d="M97 0v143h143v-143h-143zM431 0v143h143v-143h-143zM765 0v143h143v-143h-143z" />
<glyph unicode="&#x202f;" horiz-adv-x="170" />
<glyph unicode="&#x2039;" horiz-adv-x="333" d="M39 258l117 164h130l-121 -163l121 -159h-130z" />
<glyph unicode="&#x203a;" horiz-adv-x="333" d="M48 100l121 159l-119 163h129l117 -164l-117 -158h-131z" />
<glyph unicode="&#x205f;" horiz-adv-x="212" />
<glyph unicode="&#x20ac;" horiz-adv-x="591" d="M30 192v89h61v53h-61v87h66q12 90 73.5 143t153.5 53q91 0 153 -51t79 -149h-153q-16 66 -78 66q-63 0 -75 -62h92v-87h-99v-53h99v-89h-93q13 -63 76 -63q62 0 78 66h153q-17 -98 -79 -149t-153 -51q-93 0 -155 53.5t-72 143.5h-66z" />
<glyph unicode="&#x2122;" horiz-adv-x="1004" d="M22 641v84h342v-84h-121v-330h-100v330h-121zM446 311v414h151l93 -259h2l92 259h150v-414h-100v283l-4 1l-100 -284h-78l-100 283h-5v-283h-101z" />
<glyph unicode="&#xe000;" horiz-adv-x="525" d="M0 525h525v-525h-525v525z" />
<glyph unicode="&#xfb00;" horiz-adv-x="667" d="M346 408v121h67v51q0 84 35 120t112 36h87v-121h-42q-33 0 -43.5 -9t-10.5 -34v-43h98v-121h-98v-408h-138v408h-67zM12 408v121h67v51q0 84 35 120t112 36h87v-121h-42q-33 0 -43.5 -9t-10.5 -34v-43h98v-121h-98v-408h-138v408h-67z" />
<glyph unicode="&#xfb01;" d="M12 408v121h68v51q0 84 36 120t116 36h90v-121h-44q-34 0 -44.5 -9t-10.5 -34v-43h100v-121h-100v-408h-142v408h-69zM352 0v529h142v-529h-142zM352 599v137h142v-137h-142z" />
<glyph unicode="&#xfb02;" d="M12 408v121h68v51q0 84 36 120t116 36h90v-121h-44q-34 0 -44.5 -9t-10.5 -34v-43h100v-121h-100v-408h-142v408h-69zM352 0v726h142v-726h-142z" />
<glyph unicode="&#xfb03;" horiz-adv-x="969" d="M744 0v529h149v-529h-149zM744 599v137h149v-137h-149zM346 408v121h67v51q0 84 35 120t112 36h87v-121h-42q-33 0 -43.5 -9t-10.5 -34v-43h98v-121h-98v-408h-138v408h-67zM12 408v121h67v51q0 84 35 120t112 36h87v-121h-42q-33 0 -43.5 -9t-10.5 -34v-43h98v-121h-98 v-408h-138v408h-67z" />
<glyph unicode="&#xfb04;" horiz-adv-x="969" d="M744 0v725h149v-725h-149zM346 408v121h67v51q0 84 35 120t112 36h87v-121h-42q-33 0 -43.5 -9t-10.5 -34v-43h98v-121h-98v-408h-138v408h-67zM12 408v121h67v51q0 84 35 120t112 36h87v-121h-42q-33 0 -43.5 -9t-10.5 -34v-43h98v-121h-98v-408h-138v408h-67z" />
<glyph unicode="&#xfb06;" horiz-adv-x="780" d="M458 408v120h67v167h138v-167h94v-120h-94v-274q0 -14 6 -19t24 -5q11 0 64 13v-124q-71 -9 -102 -9q-130 0 -130 129v289h-67zM18 105l97 73q54 -76 111 -76q27 0 43.5 12.5t16.5 32t-33 37.5q-13 7 -45.5 18.5t-38.5 14.5q-59 24 -94.5 59.5t-35.5 98.5 q0 74 51.5 115.5t122.5 41.5q114 0 189 -88l-90 -81q-54 58 -92 58q-54 0 -54 -37q0 -21 32 -37q10 -5 23.5 -10t31.5 -11.5t29 -10.5q58 -23 93.5 -60t35.5 -104q0 -80 -53 -120.5t-138 -40.5q-124 0 -202 115z" />
<glyph unicode="&#xfb1d;" horiz-adv-x="320" d="M30 500v169h242v-427h-181v258h-61zM-48 -159q0 21 14.5 35t33.5 14t33.5 -14t14.5 -35v2q0 -20 -14.5 -33.5t-33.5 -13.5q-21 0 -34.5 13t-13.5 32z" />
<glyph unicode="&#xfb1f;" horiz-adv-x="1210" />
<glyph unicode="&#xfb20;" horiz-adv-x="571" d="M42 0v169h68l-37 500h180l37 -500h46l35 500h176l-40 -579q-2 -38 -27 -64t-61 -26h-377z" />
<glyph unicode="&#xfb21;" horiz-adv-x="594" d="M60 669h180l102 -255l6 12v243h176v-327l-100 -100l110 -242h-179l-103 273l-6 -9v-264h-176v345l102 103z" />
<glyph unicode="&#xfb22;" horiz-adv-x="520" d="M24 500v169h454v-169h-50v-500h-181v500h-223z" />
<glyph unicode="&#xfb23;" horiz-adv-x="574" d="M60 0v396h182v-396h-182zM60 500v169h454v-669h-181v500h-273z" />
<glyph unicode="&#xfb24;" horiz-adv-x="537" d="M54 0v169h241v331h-241v169h423v-578q0 -38 -26.5 -64.5t-64.5 -26.5h-332z" />
<glyph unicode="&#xfb25;" horiz-adv-x="494" d="M24 500v257h182v-88h240v-486q0 -77 -53 -130t-128 -53h-174v169h174v331h-241z" />
<glyph unicode="&#xfb26;" horiz-adv-x="598" d="M36 500v169h502v-669h-453v500h-49zM266 169h91v331h-91v-331z" />
<glyph unicode="&#xfb27;" horiz-adv-x="471" d="M24 500v169h236q63 0 107 -40.5t44 -97.5v-531h-181v500h-206z" />
<glyph unicode="&#xfb28;" horiz-adv-x="623" d="M48 0v169h61v331h-49v169h503v-669h-182v500h-91v-500h-242z" />
<glyph unicode="&#xfb29;" horiz-adv-x="544" d="M60 273v152h136v136h151v-135h137v-153h-137v-135h-151v135h-136z" />
<glyph unicode="&#xfb2a;" horiz-adv-x="721" d="M30 669h174l20 -273h43l16 273h170l-27 -443h-189l4 -57h250l37 500h175l-40 -577q-4 -45 -30.5 -68.5t-61.5 -23.5h-494zM613 755q0 19 14 33.5t34.5 14.5t34.5 -14.5t14 -33.5t-14 -33.5t-34.5 -14.5t-34.5 14.5t-14 33.5z" />
<glyph unicode="&#xfb2b;" horiz-adv-x="721" d="M28 755q0 19 14 33.5t34.5 14.5t34.5 -14.5t14 -33.5t-14 -33.5t-34.5 -14.5t-34.5 14.5t-14 33.5zM30 669h174l20 -273h43l16 273h170l-27 -443h-189l4 -57h250l37 500h175l-40 -577q-4 -45 -30.5 -68.5t-61.5 -23.5h-494z" />
<glyph unicode="&#xfb2c;" horiz-adv-x="721" d="M30 669h174l20 -273h43l16 273h170l-27 -443h-189l4 -57h250l37 500h175l-40 -577q-4 -45 -30.5 -68.5t-61.5 -23.5h-494zM445 342.5q0 9.5 7.5 17t17 7.5t17 -7.5t7.5 -17t-7.5 -17t-17 -7.5t-17 7.5t-7.5 17zM604 755q0 19 14 33.5t34.5 14.5t34.5 -14.5t14 -33.5 t-14 -33.5t-34.5 -14.5t-34.5 14.5t-14 33.5z" />
<glyph unicode="&#xfb2d;" horiz-adv-x="721" d="M28 755q0 19 14 33.5t34.5 14.5t34.5 -14.5t14 -33.5t-14 -33.5t-34.5 -14.5t-34.5 14.5t-14 33.5zM30 669h174l20 -273h43l16 273h170l-27 -443h-189l4 -57h250l37 500h175l-40 -577q-4 -45 -30.5 -68.5t-61.5 -23.5h-494zM445 342.5q0 9.5 7.5 17t17 7.5t17 -7.5 t7.5 -17t-7.5 -17t-17 -7.5t-17 7.5t-7.5 17z" />
<glyph unicode="&#xfb2e;" horiz-adv-x="594" d="M60 669h180l102 -255l6 12v243h176v-327l-100 -100l110 -242h-179l-103 273l-6 -9v-264h-176v345l102 103zM-132 -85h264v-72h-264v72z" />
<glyph unicode="&#xfb2f;" horiz-adv-x="594" d="M60 669h180l102 -255l6 12v243h176v-327l-100 -100l110 -242h-179l-103 273l-6 -9v-264h-176v345l102 103zM-132 -121h264v-73h-96v-141h-72v141h-96v73z" />
<glyph unicode="&#xfb30;" horiz-adv-x="594" d="M60 669h180l102 -255l6 12v243h176v-327l-100 -100l110 -242h-179l-103 273l-6 -9v-264h-176v345l102 103zM-48 290.5q0 19.5 14.5 34t33.5 14.5t33.5 -14.5t14.5 -34t-14.5 -34t-33.5 -14.5t-33.5 14.5t-14.5 34z" />
<glyph unicode="&#xfb31;" horiz-adv-x="544" d="M48 0v169h223v331h-211v169h393v-500h49v-169h-454zM110 342.5q0 -20.5 14 -34.5t34.5 -14t34.5 14t14 34.5t-14 34.5t-34.5 14t-34.5 -14t-14 -34.5z" />
<glyph unicode="&#xfb32;" horiz-adv-x="473" d="M30 0l43 304h153l-26 196h-75v169h232l92 -669h-180l-34 238h-9l-23 -238h-173zM76 404.5q0 -19.5 14 -34t34.5 -14.5t34.5 14.5t14 34t-14 34t-34.5 14.5t-34.5 -14.5t-14 -34z" />
<glyph unicode="&#xfb33;" horiz-adv-x="520" d="M24 500v169h454v-169h-50v-500h-181v500h-223zM82 342.5q0 -20.5 14.5 -34.5t34 -14t34 14t14.5 34.5t-14.5 34.5t-34 14t-34 -14t-14.5 -34.5z" />
<glyph unicode="&#xfb34;" horiz-adv-x="574" d="M60 0v396h182v-396h-182zM60 500v169h454v-669h-181v500h-273zM265 342.5q0 -9.5 7.5 -17t17 -7.5t16.5 7.5t7 17t-7 17t-16.5 7.5t-17 -7.5t-7.5 -17z" />
<glyph unicode="&#xfb35;" horiz-adv-x="302" d="M-73 342.5q0 -20.5 14.5 -34.5t34 -14t34 14t14.5 34.5t-14.5 34.5t-34 14t-34 -14t-14.5 -34.5zM60 0v669h182v-669h-182z" />
<glyph unicode="&#xfb36;" horiz-adv-x="405" d="M-8 342.5q0 -20.5 13.5 -34.5t34 -14t34.5 14t14 34.5t-14 34.5t-34.5 14t-34 -14t-13.5 -34.5zM36 500v169h321v-169h-56q-1 -3 -3 -7.5t-4 -23t-1 -39.5l30 -430h-181l-31 428q-1 16 1.5 34t4.5 28l3 10h-84z" />
<glyph unicode="&#xfb38;" horiz-adv-x="574" d="M60 0v669h182v-500h91v331h-51l23 169h119q37 0 63.5 -26.5t26.5 -64.5v-578h-454zM265 342.5q0 -9.5 7.5 -17t17 -7.5t16.5 7.5t7 17t-7 17t-16.5 7.5t-17 -7.5t-7.5 -17z" />
<glyph unicode="&#xfb39;" horiz-adv-x="320" d="M-40 342.5q0 -20.5 14 -34.5t34.5 -14t34.5 14t14 34.5t-14 34.5t-34.5 14t-34.5 -14t-14 -34.5zM30 500v169h242v-427h-181v258h-61z" />
<glyph unicode="&#xfb3a;" horiz-adv-x="506" d="M36 500v169h410v-790h-181v621h-229zM105 342.5q0 -20.5 14 -34.5t34.5 -14t34.5 14t14 34.5t-14 34.5t-34.5 14t-34.5 -14t-14 -34.5z" />
<glyph unicode="&#xfb3b;" horiz-adv-x="537" d="M54 0v169h241v331h-241v169h423v-578q0 -38 -26.5 -64.5t-64.5 -26.5h-332zM136 342.5q0 -20.5 14.5 -34.5t33.5 -14t33.5 14t14.5 34.5t-14.5 34.5t-33.5 14t-33.5 -14t-14.5 -34.5z" />
<glyph unicode="&#xfb3c;" horiz-adv-x="494" d="M24 500v257h182v-88h240v-486q0 -77 -53 -130t-128 -53h-174v169h174v331h-241zM100 342.5q0 -20.5 14 -34.5t34.5 -14t34.5 14t14 34.5t-14 34.5t-34.5 14t-34.5 -14t-14 -34.5z" />
<glyph unicode="&#xfb3e;" horiz-adv-x="562" d="M36 500v169h200v-46l54 46h127q38 0 64.5 -26.5t26.5 -64.5v-578h-236v169h55v331h-73l-36 -500h-176l37 500h-43zM263 342.5q0 -9.5 7 -17t16.5 -7.5t17 7.5t7.5 17t-7.5 17t-17 7.5t-16.5 -7.5t-7 -17z" />
<glyph unicode="&#xfb40;" horiz-adv-x="385" d="M-2 342.5q0 -20.5 14.5 -34.5t33.5 -14t33.5 14t14.5 34.5t-14.5 34.5t-33.5 14t-33.5 -14t-14.5 -34.5zM24 0v169h120v331h-59v169h240v-578q0 -38 -26.5 -64.5t-63.5 -26.5h-211z" />
<glyph unicode="&#xfb41;" horiz-adv-x="540" d="M30 669h481l-40 -581q-3 -37 -29 -62.5t-62 -25.5h-300zM224 500l24 -331h51l24 331h-99zM248 342.5q0 -9.5 7.5 -17t17 -7.5t16.5 7.5t7 17t-7 17t-16.5 7.5t-17 -7.5t-7.5 -17z" />
<glyph unicode="&#xfb43;" horiz-adv-x="562" d="M48 260v409h454v-790h-181v621h-91v-240h-182zM-48 290.5q0 19.5 14.5 34t33.5 14.5t33.5 -14.5t14.5 -34t-14.5 -34t-33.5 -14.5t-33.5 14.5t-14.5 34z" />
<glyph unicode="&#xfb44;" horiz-adv-x="574" d="M60 0v169h273v331h-91v-179h-182v348h454v-578q0 -38 -26.5 -64.5t-63.5 -26.5h-364zM264 342.5q0 -9.5 7 -17t17 -7.5t17 7.5t7 17t-7 17t-17 7.5t-17 -7.5t-7 -17z" />
<glyph unicode="&#xfb46;" horiz-adv-x="515" d="M21 342.5q0 -20.5 13.5 -34.5t34.5 -14t34.5 14t13.5 34.5t-13.5 34.5t-34.5 14t-34.5 -14t-13.5 -34.5zM24 669h194l91 -203h8l1 203h167l-24 -333h-79l92 -167v-169h-434v169h241z" />
<glyph unicode="&#xfb47;" horiz-adv-x="544" d="M42 -121v517h182v-517h-182zM42 500v169h454v-473q0 -77 -54 -136.5t-127 -59.5h-61v169h61v331h-273zM246 342.5q0 -9.5 7 -17t17 -7.5t17 7.5t7 17t-7 17t-17 7.5t-17 -7.5t-7 -17z" />
<glyph unicode="&#xfb48;" horiz-adv-x="471" d="M24 500v169h236q63 0 107 -40.5t44 -97.5v-531h-181v500h-206zM-48 290.5q0 19.5 14.5 34t33.5 14.5t33.5 -14.5t14.5 -34t-14.5 -34t-33.5 -14.5t-33.5 14.5t-14.5 34z" />
<glyph unicode="&#xfb49;" horiz-adv-x="721" d="M30 669h174l20 -273h43l16 273h170l-27 -443h-189l4 -57h250l37 500h175l-40 -577q-4 -45 -30.5 -68.5t-61.5 -23.5h-494zM445 342.5q0 -9.5 7.5 -17t17 -7.5t17 7.5t7.5 17t-7.5 17t-17 7.5t-17 -7.5t-7.5 -17z" />
<glyph unicode="&#xfb4a;" horiz-adv-x="623" d="M48 0v169h61v331h-49v169h503v-669h-182v500h-91v-500h-242zM313 342.5q0 -9.5 7.5 -17t17 -7.5t17 7.5t7.5 17t-7.5 17t-17 7.5t-17 -7.5t-7.5 -17z" />
<glyph unicode="&#xfb4b;" horiz-adv-x="302" d="M58 755q0 19 14.5 33.5t34 14.5t34 -14.5t14.5 -33.5t-14.5 -33.5t-34 -14.5t-34 14.5t-14.5 33.5zM60 0v669h182v-669h-182z" />
<glyph unicode="&#xfb4c;" horiz-adv-x="544" d="M48 0v169h223v331h-211v169h393v-500h49v-169h-454zM-126 674v73h252v-73h-252z" />
<glyph unicode="&#xfb4d;" horiz-adv-x="537" d="M54 0v169h241v331h-241v169h423v-578q0 -38 -26.5 -64.5t-64.5 -26.5h-332zM-126 674v73h252v-73h-252z" />
<glyph unicode="&#xfb4e;" horiz-adv-x="574" d="M60 0v169h273v331h-91v-179h-182v348h454v-578q0 -38 -26.5 -64.5t-63.5 -26.5h-364zM-126 674v73h252v-73h-252z" />
<glyph unicode="&#xfb4f;" horiz-adv-x="1089" d="M555 669h180l102 -255l6 12v243h176v-327l-100 -100l110 -242h-179l-103 273l-6 -9v-264h-176v345l102 103zM24 500v257h182v-88h240v-486q0 -77 -53 -130t-128 -53h-174v169h174v331h-241z" />
<glyph horiz-adv-x="284" />
</font>
</defs>
</svg>
