<?xml version="1.0" standalone="no"?>
<!DOCTYPE svg PUBLIC "-//W3C//DTD SVG 1.1//EN" "http://www.w3.org/Graphics/SVG/1.1/DTD/svg11.dtd" >
<svg xmlns="http://www.w3.org/2000/svg">
<metadata>
This is a custom SVG webfont generated by Font Squirrel.
Copyright   : Copyright c Yanek Iontef 19952005 All rights reserved
Designer    : Yanek Iontef
Foundry     : Yanek Iontef
Foundry URL : wwwfontefcom
</metadata>
<defs>
<font id="AdumaFOTMedium" horiz-adv-x="557" >
<font-face units-per-em="1000" ascent="700" descent="-300" />
<missing-glyph horiz-adv-x="284" />
<glyph unicode=" "  horiz-adv-x="284" />
<glyph unicode="&#x09;" horiz-adv-x="284" />
<glyph unicode="&#xa0;" horiz-adv-x="284" />
<glyph unicode="!" horiz-adv-x="260" d="M60 307v362h140v-362l-33 -87h-74zM67 0v123h127v-123h-127z" />
<glyph unicode="&#x22;" horiz-adv-x="375" d="M60 425v299h103v-230zM212 425v299h103v-230z" />
<glyph unicode="#" horiz-adv-x="536" d="M30 137l17 93h59l45 238h-60l17 93h60l20 108h110l-21 -108h70l21 108h110l-21 -108h61l-18 -93h-60l-44 -238h60l-17 -93h-59l-27 -137h-109l27 137h-73l-24 -137h-109l26 137h-61zM215 230h72l45 238h-72z" />
<glyph unicode="$" horiz-adv-x="548" d="M60 175v38h142v-38q0 -24 22.5 -39.5t49 -15.5t45.5 20t19 45q0 34 -50 72q-15 10 -51 35.5t-58 43t-48.5 43.5t-40 56t-13.5 61q0 73 47.5 121.5t109.5 51.5v73h78v-73q66 -3 107.5 -50.5t49.5 -117.5h-133q-4 31 -17.5 46.5t-41.5 15.5q-19 0 -39 -11.5t-20 -37.5 q0 -34 51 -68l93 -64q126 -86 126 -193q0 -62 -47.5 -115t-128.5 -73v-104h-78v103q-72 17 -123 59.5t-51 115.5z" />
<glyph unicode="%" horiz-adv-x="555" d="M60 466v134q0 32 25.5 55t60.5 23q37 0 62.5 -22.5t25.5 -54.5v-135q0 -32 -25.5 -54t-60.5 -22q-37 0 -62.5 22t-25.5 54zM98 -1l242 671h122l-243 -671h-121zM127 466q0 -7 6 -12t13 -5q21 0 21 17v135q0 8 -6 12.5t-13 4.5q-21 0 -21 -17v-135zM322 64v134 q0 32 25.5 55t60.5 23q36 0 61.5 -23t25.5 -55v-134q0 -31 -25.5 -53.5t-60.5 -22.5q-36 0 -61.5 22.5t-25.5 53.5zM388 64q0 -7 6.5 -12.5t13.5 -5.5q8 0 14 5.5t6 12.5v134q0 19 -19 19q-21 0 -21 -19v-134z" />
<glyph unicode="&#x26;" horiz-adv-x="670" d="M40 201q0 110 121 191q-33 47 -47.5 85t-14.5 89q0 77 51.5 123.5t132.5 46.5q72 0 122.5 -47.5t50.5 -114.5q0 -34 -11 -63t-35.5 -56.5t-41.5 -42t-52 -42.5q64 -86 128 -143q39 56 68 136l111 -29q-42 -113 -88 -178q49 -48 101 -50v-116q-53 0 -86 14t-94 63 q-72 -77 -184 -77q-106 0 -169 53t-63 158zM171 207q0 -40 32 -70.5t74 -30.5q55 0 97 40q-84 66 -145 156q-21 -16 -31 -26.5t-18.5 -28.5t-8.5 -40zM215 576q0 -57 39 -119q86 65 86 121q0 32 -17 53.5t-46 21.5q-23 0 -42.5 -21.5t-19.5 -55.5z" />
<glyph unicode="'" horiz-adv-x="223" d="M60 425v299h103v-230z" />
<glyph unicode="(" horiz-adv-x="419" d="M91 335q0 90 29.5 219.5t54.5 204.5h141q-87 -253 -87 -424q0 -185 88 -425h-142q-25 75 -54.5 204.5t-29.5 220.5z" />
<glyph unicode=")" horiz-adv-x="419" d="M103 -90q88 240 88 425q0 171 -87 424h140q26 -75 55.5 -204.5t29.5 -219.5q0 -91 -29.5 -220.5t-55.5 -204.5h-141z" />
<glyph unicode="*" horiz-adv-x="348" d="M42 576l54 28l-54 28l39 65l55 -30v58h77v-58l54 30l39 -65l-53 -28l53 -28l-39 -65l-54 30v-58h-77v58l-55 -30z" />
<glyph unicode="+" horiz-adv-x="562" d="M60 292v115h166v154h109v-153h167v-116h-167v-154h-109v154h-166z" />
<glyph unicode="," horiz-adv-x="223" d="M60 -129v298h103v-229z" />
<glyph unicode="-" horiz-adv-x="532" d="M60 299v102h412v-102h-412z" />
<glyph unicode="." horiz-adv-x="223" d="M60 0v169h103v-169h-103z" />
<glyph unicode="/" horiz-adv-x="375" d="M24 -91l190 819h137l-189 -819h-138z" />
<glyph unicode="0" horiz-adv-x="526" d="M60 167v335q0 74 59 126.5t144 52.5t144 -52.5t59 -126.5v-335q0 -74 -59 -126.5t-143 -52.5q-86 0 -145 52.5t-59 126.5zM200 167q0 -25 18.5 -42t44.5 -17t45 17t19 42v335q0 26 -19 42.5t-44 16.5q-27 0 -45.5 -16.5t-18.5 -42.5v-335z" />
<glyph unicode="1" horiz-adv-x="393" d="M73 451v142l111 76h118v-669h-139v514z" />
<glyph unicode="2" horiz-adv-x="562" d="M79 0v119q35 41 116 137.5t126 150.5q19 21 19 39v55q0 24 -17.5 42t-40.5 18q-24 0 -43.5 -15.5t-19.5 -44.5v-79h-140v79q0 75 58.5 127.5t143.5 52.5q92 0 145.5 -50.5t53.5 -129.5v-51q0 -43 -30 -88q-11 -15 -41 -50.5t-44 -52.5l-108 -136h233v-123h-411z" />
<glyph unicode="3" horiz-adv-x="526" d="M60 166v58h140v-58q0 -26 18 -42t45 -16q25 0 44.5 16t19.5 49v34q0 12 -3 26.5t-21.5 32t-48.5 17.5v122q42 0 57.5 16.5t15.5 34.5v43q0 26 -17.5 44t-45.5 18q-29 0 -46.5 -16.5t-17.5 -39.5v-38h-140v36q0 74 57.5 126t145.5 52q84 0 143.5 -56t59.5 -128v-48 q0 -61 -57 -105q57 -37 57 -118v-70q0 -60 -59.5 -114t-142.5 -54q-87 0 -145.5 51t-58.5 127z" />
<glyph unicode="4" horiz-adv-x="469" d="M30 166v118l120 385h136l-114 -377h86v109h139v-109h48v-126h-48v-166h-139v166h-228z" />
<glyph unicode="5" horiz-adv-x="526" d="M60 160v34h141v-34q0 -23 19.5 -37.5t38.5 -14.5q29 0 47.5 14.5t18.5 37.5v109q0 25 -17.5 44t-47.5 19q-26 0 -45 -15t-21 -31h-134v383h386v-133h-246v-109q36 24 89 24q79 0 128 -50.5t49 -131.5v-109q0 -69 -62.5 -120.5t-146.5 -51.5q-78 0 -137.5 55t-59.5 117z " />
<glyph unicode="6" horiz-adv-x="527" d="M51 198q0 22 6.5 48t12.5 42t20.5 47.5t18.5 40.5l122 293h154l-116 -268q9 2 27 2q75 0 128 -55.5t53 -146.5q0 -99 -56.5 -156t-150.5 -57q-96 0 -157.5 55.5t-61.5 154.5zM192 200q0 -41 22 -64t56 -23q65 0 65 87q0 41 -18.5 63.5t-52.5 22.5t-53 -22t-19 -64z" />
<glyph unicode="7" horiz-adv-x="481" d="M30 471v198h421v-126l-196 -543h-152l193 536h-127v-65h-139z" />
<glyph unicode="8" horiz-adv-x="539" d="M60 196q0 93 78 150q-69 53 -69 136q0 89 56.5 144t144.5 55t143.5 -55t55.5 -144q0 -83 -68 -136q78 -58 78 -150q0 -97 -57.5 -152.5t-152 -55.5t-152 55.5t-57.5 152.5zM201 197.5q0 -37.5 18 -60.5t50.5 -23t51 23t18.5 60.5t-18.5 61.5t-51 24t-50.5 -24t-18 -61.5z M209 478q0 -74 61 -74q59 0 59 74q0 77 -59 77q-29 0 -45 -21t-16 -56z" />
<glyph unicode="9" horiz-adv-x="545" d="M60 468q0 99 56.5 156t149.5 57q96 0 157.5 -55.5t61.5 -154.5q0 -38 -19 -90q-6 -16 -19.5 -45.5t-18.5 -42.5l-123 -293h-154l116 269q-8 -3 -27 -3q-75 0 -127.5 56t-52.5 146zM201 469q0 -41 18.5 -63t52.5 -22t53.5 22t19.5 63.5t-22 64.5t-57 23q-65 0 -65 -88z " />
<glyph unicode=":" horiz-adv-x="223" d="M60 0v182h103v-182h-103zM60 318v182h103v-182h-103z" />
<glyph unicode=";" horiz-adv-x="223" d="M60 -129v308h103v-237zM60 317v183h103v-183h-103z" />
<glyph unicode="&#x3c;" horiz-adv-x="721" d="M30 334l182 183h172l-123 -121h418v-121h-418l121 -121h-169z" />
<glyph unicode="=" horiz-adv-x="502" d="M60 204v113h382v-113h-382zM60 414v112h382v-112h-382z" />
<glyph unicode="&#x3e;" horiz-adv-x="721" d="M42 273v121h417l-121 123h170l183 -182l-183 -181h-169l120 119h-417z" />
<glyph unicode="?" horiz-adv-x="477" d="M30 501q5 79 62 129.5t140.5 50.5t143.5 -52t60 -123q0 -66 -46 -110l-88 -84v-93l-127 1v150l103 98q17 14 17 38q0 25 -18.5 41.5t-44 16.5t-43 -16.5t-20.5 -46.5h-139zM175 0v123h127v-123h-127z" />
<glyph unicode="@" horiz-adv-x="803" d="M45 362q0 157 109 265.5t263 108.5q136 0 238 -85t102 -219q0 -77 -29.5 -137t-72.5 -91t-81 -45.5t-65 -14.5q-21 0 -36.5 13.5t-16.5 37.5l-2 1q-45 -52 -97 -52q-64 0 -111.5 52.5t-47.5 122.5q0 95 56.5 166.5t144.5 71.5q78 0 118 -63l12 50h88l-50 -245 q-6 -24 -6 -36q0 -22 15 -22q37 0 67.5 44t30.5 119q0 116 -72 181.5t-187 65.5q-122 0 -196 -81.5t-74 -207.5q0 -131 79.5 -209.5t206.5 -78.5q111 0 192 71h91q-104 -155 -292 -155q-157 0 -267 106t-110 266zM307 334q0 -36 20 -60t55 -24q46 0 76.5 36.5t30.5 83.5 q0 37 -22 60t-56 23q-43 0 -73.5 -34.5t-30.5 -84.5z" />
<glyph unicode="A" horiz-adv-x="613" d="M13 0l208 726h173l206 -726h-137l-41 156h-228l-43 -156h-138zM224 271h169l-82 316h-1z" />
<glyph unicode="B" horiz-adv-x="670" d="M79 0v725h268q239 0 247 -178v-8q0 -114 -111 -157q71 -29 99 -69.5t28 -121.5q0 -88 -65.5 -139.5t-198.5 -51.5h-267zM217 113h139q115 0 115 105t-115 105h-139v-210zM217 436h139q48 0 73.5 24.5t25.5 63.5q0 40 -25.5 64t-73.5 24h-139v-176z" />
<glyph unicode="C" horiz-adv-x="613" d="M30 363q0 178 76.5 275.5t215.5 97.5q202 0 253 -192l-126 -30q-35 104 -132 104q-70 0 -109 -64.5t-40 -190.5q0 -257 154 -257q48 0 79.5 23t61.5 85l129 -34q-66 -190 -270 -190q-139 0 -215.5 97.5t-76.5 275.5z" />
<glyph unicode="D" horiz-adv-x="670" d="M79 0v725h239q151 0 238.5 -89t87.5 -273q0 -185 -87.5 -274t-238.5 -89h-239zM217 116h93q195 0 195 247q0 246 -195 246h-93v-493z" />
<glyph unicode="E" horiz-adv-x="613" d="M85 0v725h479v-116h-341v-173h248v-117h-248v-203h353v-116h-491z" />
<glyph unicode="F" d="M79 0v725h462v-116h-324v-173h242v-117h-242v-319h-138z" />
<glyph unicode="G" horiz-adv-x="670" d="M30 352q0 74 15 138.5t48.5 121.5t94.5 90.5t145 33.5q103 0 169.5 -50.5t92.5 -134.5l-128 -34q-24 54 -58 77.5t-87 23.5q-75 0 -114.5 -69.5t-39.5 -192.5q0 -115 41 -182.5t113 -67.5q66 0 108 40t44 104h-138v117h271v-367h-100v74q-42 -47 -85.5 -65.5 t-103.5 -18.5q-141 0 -214.5 100t-73.5 262z" />
<glyph unicode="H" horiz-adv-x="724" d="M85 0v725h138v-289h279v289h139v-725h-139v311h-279v-311h-138z" />
<glyph unicode="I" horiz-adv-x="333" d="M98 0v725h138v-725h-138z" />
<glyph unicode="J" horiz-adv-x="446" d="M-5 87l96 72q31 -53 75 -53q57 0 57 86v533h139v-529q0 -206 -196 -206q-107 0 -171 97z" />
<glyph unicode="K" horiz-adv-x="670" d="M79 0v725h138v-324h-2l244 324h159l-205 -272l239 -453h-153l-181 345l-101 -127v-218h-138z" />
<glyph unicode="L" d="M79 0v725h138v-609h315v-116h-453z" />
<glyph unicode="M" horiz-adv-x="836" d="M81 0v725h195l140 -506h1l141 506h197v-725h-120v570h-2l-164 -570h-105l-161 570h-1v-570h-121z" />
<glyph unicode="N" horiz-adv-x="724" d="M81 0v725h145l285 -494h2v494h131v-725h-133l-297 517h-2v-517h-131z" />
<glyph unicode="O" horiz-adv-x="670" d="M30 363q0 179 78 276t226 97t226.5 -97t78.5 -276t-78.5 -276t-226.5 -97t-226 97t-78 276zM168 363q0 -257 166 -257t166 257q0 255 -166 255q-163 0 -166 -255z" />
<glyph unicode="P" horiz-adv-x="613" d="M68 0v725h266q121 0 188 -53.5t67 -162.5q0 -110 -67 -163t-188 -53h-127v-293h-139zM207 405h110q75 0 104.5 26t29.5 78t-29.5 77.5t-104.5 25.5h-110v-207z" />
<glyph unicode="Q" horiz-adv-x="670" d="M30 363q0 179 78 276t226 97t226.5 -97t78.5 -276q0 -169 -73 -267q40 -33 92 -34v-116q-66 0 -94 14.5t-76 66.5q-62 -37 -154 -37q-148 0 -226 97t-78 276zM168 363q0 -257 166 -257q52 0 87 25q-37 54 -87 63v123q51 -5 85.5 -27.5t63.5 -64.5q17 51 17 138 q0 255 -166 255q-163 0 -166 -255z" />
<glyph unicode="R" horiz-adv-x="670" d="M79 0v725h289q117 0 174 -59.5t58 -154.5q0 -69 -34.5 -119.5t-98.5 -68.5l160 -323h-154l-137 295h-119v-295h-138zM217 408h102q79 0 110.5 24.5t31.5 78.5q0 101 -117 101h-127v-204z" />
<glyph unicode="S" horiz-adv-x="613" d="M36 162l115 50q55 -114 158 -114q122 0 122 97q0 39 -39 68t-93.5 49.5t-109.5 45t-93.5 69t-38.5 105.5q0 94 67.5 149t167.5 55q88 0 155.5 -43t99.5 -122l-126 -39q-37 95 -129 95q-104 0 -104 -80q0 -34 38.5 -59.5t93.5 -45.5t109.5 -45.5t93 -72t38.5 -111.5 q0 -110 -65.5 -166.5t-188.5 -56.5q-90 0 -165 46.5t-106 125.5z" />
<glyph unicode="T" d="M21 610v116h517v-116h-190v-610h-139v610h-188z" />
<glyph unicode="U" horiz-adv-x="724" d="M85 271v454h138v-460q0 -86 33.5 -122.5t106.5 -36.5q71 0 105 36.5t34 122.5v460h139v-454q0 -148 -77.5 -214.5t-200.5 -66.5t-200.5 66.5t-77.5 214.5z" />
<glyph unicode="V" d="M10 725h136l129 -534h2l134 534h137l-191 -725h-155z" />
<glyph unicode="W" horiz-adv-x="836" d="M21 725h129l91 -489h2l103 489h143l95 -489h3l99 489h130l-152 -725h-140l-105 517h-3l-104 -517h-140z" />
<glyph unicode="X" d="M8 0l195 371l-182 354h150l109 -224l107 224h151l-183 -354l196 -371h-152l-119 246l-121 -246h-151z" />
<glyph unicode="Y" d="M10 725h145l125 -287l124 287h144l-200 -436v-289h-139v289z" />
<glyph unicode="Z" d="M16 0v117l339 492h-316v116h490v-110l-350 -499h353v-116h-516z" />
<glyph unicode="[" horiz-adv-x="314" d="M51 -182v1033h231v-136h-92v-761h92v-136h-231z" />
<glyph unicode="\" horiz-adv-x="375" d="M24 728h137l190 -819h-138z" />
<glyph unicode="]" horiz-adv-x="314" d="M33 -46h92v761h-92v136h231v-1033h-231v136z" />
<glyph unicode="^" horiz-adv-x="602" d="M64 348l183 377h109l184 -377h-131l-108 233l-107 -233h-130z" />
<glyph unicode="_" horiz-adv-x="502" d="M0 -75h502v-51h-502v51z" />
<glyph unicode="`" horiz-adv-x="279" d="M-28 736h155l94 -148h-102z" />
<glyph unicode="a" horiz-adv-x="502" d="M18 128q0 89 73.5 138.5t225.5 67.5v44q0 29 -21 45.5t-55 16.5q-67 0 -114 -65l-81 62q24 41 80 69q53 26 107 26h8q107 -2 154 -48.5t47 -161.5v-322h-120v45q-80 -55 -162 -55q-68 0 -105 40.5t-37 97.5zM143 144q0 -29 17 -45.5t43 -16.5q52 0 114 56v112 q-30 -6 -43 -9t-39 -9.5t-38 -13.5t-27 -17.5t-21 -24.5t-6 -32z" />
<glyph unicode="b" d="M64 0v725h125v-251h2q18 25 55.5 41.5t70.5 16.5q97 0 153 -76.5t56 -180.5q0 -127 -54.5 -206t-154.5 -79q-73 0 -142 66l-13 -56h-98zM189 137q3 -3 17.5 -15.5t21.5 -17t22.5 -9t35.5 -4.5q55 0 85.5 44t30.5 126.5t-30.5 126.5t-85.5 44q-48 0 -97 -45v-250z" />
<glyph unicode="c" horiz-adv-x="502" d="M24 261.5q0 124.5 60.5 197.5t167.5 73q73 0 128.5 -36.5t76.5 -102.5l-104 -41q-17 40 -38.5 60t-62.5 20q-103 0 -103 -171q0 -87 25.5 -128.5t80.5 -41.5q66 0 110 83l95 -53q-36 -70 -86 -101q-49 -30 -118 -30h-4q-107 0 -167.5 73.5t-60.5 198z" />
<glyph unicode="d" d="M33 275q0 104 56 180.5t152 76.5q32 0 70.5 -16.5t56.5 -41.5h1v251h125v-725h-106l-6 56q-67 -66 -141 -66q-101 0 -154.5 79t-53.5 206zM156 261.5q0 -82.5 30.5 -126.5t86.5 -44q16 0 28 2.5t22.5 7.5t16 10t15 13.5t14.5 12.5v250q-47 45 -96 45q-56 0 -86.5 -44 t-30.5 -126.5z" />
<glyph unicode="e" horiz-adv-x="502" d="M24 261.5q0 124.5 60.5 197t167.5 73.5q96 0 153.5 -70t57.5 -169v-52h-314q1 -76 30.5 -113t77.5 -37q41 0 65 14.5t52 46.5l89 -55q-66 -107 -217 -107q-103 0 -162.5 73.5t-59.5 198zM149 325h201q-2 55 -28.5 85t-72.5 30t-72.5 -30t-27.5 -85z" />
<glyph unicode="f" horiz-adv-x="333" d="M12 422v101h71v64q0 82 34.5 115.5t113.5 33.5h82v-101h-33q-39 0 -55 -13t-16 -44v-55h106v-101h-106v-422h-124v422h-73z" />
<glyph unicode="g" horiz-adv-x="502" d="M12 -67q0 46 28.5 71.5t65.5 25.5v3q-2 1 -20.5 10.5t-28 15.5t-19 22t-9.5 35q0 34 28.5 61t52.5 35q-77 64 -77 139q0 74 55 127.5t152 53.5q73 0 128 -46q34 46 110 46h12v-84q-62 0 -80 -12q28 -39 28 -92q0 -77 -51 -123.5t-146 -46.5q-50 0 -73.5 -5.5t-23.5 -25.5 q0 -23 35.5 -31t86 -10t100.5 -9t86 -39t36 -90q0 -62 -63 -108.5t-179 -46.5q-109 0 -171.5 32t-62.5 92zM127 -51q0 -30 31 -44t107 -14q37 0 63.5 11.5t35.5 23.5t9 23q0 13 -13.5 26.5t-51 24t-93.5 10.5q-46 0 -67 -19.5t-21 -41.5zM148 353.5q0 -36.5 25 -61.5t65 -25 q35 0 60 25t25 61.5t-25 61.5t-60 25q-40 0 -65 -25t-25 -61.5z" />
<glyph unicode="h" d="M64 0v725h125v-259q78 66 151 66q76 0 115 -46.5t39 -128.5v-357h-125v340q0 51 -15.5 71.5t-48.5 20.5q-69 0 -116 -56v-376h-125z" />
<glyph unicode="i" horiz-adv-x="279" d="M77 0v523h125v-523h-125zM77 618v118h125v-118h-125z" />
<glyph unicode="j" horiz-adv-x="279" d="M2 -81q40 -4 43 -4q46 0 46 64v544h124v-563q0 -80 -35 -115.5t-112 -35.5q-32 0 -66 8v102zM91 618v118h124v-118h-124z" />
<glyph unicode="k" horiz-adv-x="502" d="M64 0v725h125v-404h3l154 202h143l-154 -195l165 -328h-132l-116 234l-63 -73v-161h-125z" />
<glyph unicode="l" horiz-adv-x="279" d="M77 0v725h125v-725h-125z" />
<glyph unicode="m" horiz-adv-x="836" d="M64 0v523h114v-57q39 35 72 50.5t84 15.5q42 0 77 -20t52 -56q74 76 180 76q50 0 89 -36t39 -121v-375h-124v364q0 67 -63 68h-1q-43 0 -103 -57v-375h-124v364q0 67 -63 68h-1q-44 0 -103 -57v-375h-125z" />
<glyph unicode="n" d="M64 0v523h115v-57q93 66 161 66q76 0 115 -46.5t39 -128.5v-357h-125v340q0 51 -15.5 71.5t-48.5 20.5q-69 0 -116 -56v-376h-125z" />
<glyph unicode="o" horiz-adv-x="502" d="M24 261.5q0 124.5 60.5 197.5t167.5 73q105 0 165.5 -73t60.5 -197.5t-60.5 -198t-165.5 -73.5q-107 0 -167.5 73.5t-60.5 198zM149 261.5q0 -170.5 103 -170.5q101 0 101 170.5t-101 170.5q-103 0 -103 -170.5z" />
<glyph unicode="p" d="M64 -191v714h120v-49q60 58 133 58q100 0 154.5 -79t54.5 -206q0 -103 -56 -180t-153 -77q-33 0 -70.5 17t-55.5 41h-2v-239h-125zM189 134q48 -43 97 -43q55 0 85.5 44t30.5 126.5t-30.5 126.5t-85.5 44q-19 0 -34.5 -5t-23.5 -10.5t-21 -16t-18 -14.5v-252z" />
<glyph unicode="q" d="M33 247q0 127 53.5 206t154.5 79q75 0 141 -66l15 57h97v-714h-125v239h-1q-18 -24 -56.5 -41t-70.5 -17q-96 0 -152 77t-56 180zM156 261.5q0 -82.5 30.5 -126.5t86.5 -44q50 0 96 43v252q-5 4 -17.5 15.5t-20 16t-23.5 9.5t-35 5q-56 0 -86.5 -44t-30.5 -126.5z" />
<glyph unicode="r" horiz-adv-x="333" d="M56 0v523h115v-90h2q47 96 146 99v-131q-6 1 -21 1q-41 0 -79.5 -34.5t-38.5 -50.5v-317h-124z" />
<glyph unicode="s" horiz-adv-x="446" d="M22 96l83 61q55 -75 122 -75q33 0 53.5 16.5t20.5 43.5q0 24 -26.5 41t-65 30t-77.5 30t-65.5 52t-26.5 86q0 70 51 110.5t122 40.5q116 0 184 -79l-79 -68q-53 55 -97 55q-70 0 -70 -52q0 -24 26.5 -40t65 -29t77 -30t65 -53t26.5 -90q0 -77 -52.5 -116.5t-138.5 -39.5 q-128 0 -198 106z" />
<glyph unicode="t" horiz-adv-x="333" d="M12 422v101h73v172h124v-172h102v-101h-102v-295q0 -21 10.5 -28.5t34.5 -7.5q9 0 57 9v-102q-68 -8 -98 -8q-128 0 -128 120v312h-73z" />
<glyph unicode="u" d="M64 165v358h125v-340q0 -51 15.5 -71.5t48.5 -20.5q70 0 116 54v378h125v-523h-114v56q-96 -66 -161 -66q-76 0 -115.5 46t-39.5 129z" />
<glyph unicode="v" horiz-adv-x="446" d="M10 523h124l87 -355h2l88 355h125l-149 -523h-131z" />
<glyph unicode="w" horiz-adv-x="670" d="M10 523h118l72 -326h2l75 326h116l72 -326h2l74 326h118l-134 -523h-112l-78 325h-1l-77 -325h-112z" />
<glyph unicode="x" horiz-adv-x="446" d="M4 0l153 271l-147 252h138l73 -145l74 145h135l-147 -252l159 -271h-132l-89 162l-83 -162h-134z" />
<glyph unicode="y" horiz-adv-x="446" d="M8 523h126l87 -322h2l89 322h125l-165 -524q-35 -112 -78.5 -151t-123.5 -39q-29 0 -60 5v101q19 -3 52 -3q61 0 83 41q20 41 20 62q0 8 -16 61z" />
<glyph unicode="z" horiz-adv-x="446" d="M18 0v88l252 334h-231v101h387v-89l-252 -334h254v-100h-410z" />
<glyph unicode="{" horiz-adv-x="398" d="M30 296v132h41q20 0 34.5 13.5t14.5 31.5v255q0 51 38.5 87t94.5 36h103v-131h-91v-294q0 -42 -48 -64q48 -34 48 -70v-343h91v-131h-103q-56 0 -94.5 36t-38.5 87v311q0 18 -14.5 31t-34.5 13h-41z" />
<glyph unicode="|" horiz-adv-x="302" d="M81 -182v1033h140v-1033h-140z" />
<glyph unicode="}" horiz-adv-x="398" d="M42 -51h91v343q0 36 49 70q-49 22 -49 64v294h-91v131h103q56 0 94.5 -36t38.5 -87v-255q0 -18 14.5 -31.5t34.5 -13.5h41v-132h-41q-20 0 -34.5 -13t-14.5 -31v-311q0 -51 -38.5 -87t-94.5 -36h-103v131z" />
<glyph unicode="~" horiz-adv-x="602" d="M69 261q46 87 131 87q25 0 52.5 -8t63 -23.5t49.5 -20.5q22 -8 38 -8q17 0 32 11t25.5 23.5t29.5 41.5l44 -104q-21 -28 -35 -43t-41.5 -29.5t-60.5 -14.5q-38 0 -97.5 31t-101.5 31q-26 0 -44 -19t-40 -62z" />
<glyph unicode="&#xa2;" horiz-adv-x="613" d="M82 261q0 125 61 198t167 73q31 0 65 -8l39 106h58l-46 -128q65 -35 89 -109l-104 -41q-10 26 -24 44l-106 -300q13 -5 32 -5q68 0 111 83l94 -53q-36 -70 -86.5 -101t-121.5 -30q-35 0 -64 8l-46 -124h-58l52 147q-112 64 -112 240zM197 261q0 -93 35 -134l108 301 q-13 4 -30 4q-113 0 -113 -171z" />
<glyph unicode="&#xa3;" horiz-adv-x="497" d="M34 255v86h53v70q0 97 62.5 151.5t152.5 54.5q95 0 157 -63l-78 -77q-36 34 -79 34q-44 0 -70 -27t-26 -79v-64h96v-86h-96v-149h253v-106h-372v255h-53z" />
<glyph unicode="&#xa5;" horiz-adv-x="613" d="M28 725h124l154 -311l155 311h125l-136 -265h94v-95h-141l-35 -67h176v-95h-181v-203h-114v203h-181v95h178l-35 67h-143v95h95z" />
<glyph unicode="&#xa8;" horiz-adv-x="514" d="M99 621v111h95v-111h-95zM321 621v111h94v-111h-94z" />
<glyph unicode="&#xa9;" horiz-adv-x="740" d="M59 306.5q0 129.5 91.5 220t220 90.5t219.5 -90.5t91 -220t-91 -220.5t-219.5 -91t-220 91t-91.5 220.5zM122 306.5q0 -106.5 72 -180t176 -73.5t176 73.5t72 180t-72 179.5t-176 73t-176 -73t-72 -179.5zM221 306q0 78 42.5 125t111.5 47q62 0 113 -45l-39 -41 q-35 30 -74 30q-92 0 -92 -116q0 -117 92 -117q36 0 74 30l39 -40q-51 -45 -113 -45q-69 0 -111.5 46.5t-42.5 125.5z" />
<glyph unicode="&#xab;" d="M60 258l120 164h113l-124 -164l124 -158h-113zM265 258l121 164h113l-124 -164l124 -158h-113z" />
<glyph unicode="&#xad;" horiz-adv-x="532" d="M60 299v102h412v-102h-412z" />
<glyph unicode="&#xae;" horiz-adv-x="740" d="M59 306.5q0 129.5 91.5 220t220 90.5t219.5 -90.5t91 -220t-91 -220.5t-219.5 -91t-220 91t-91.5 220.5zM121 306.5q0 -106.5 72.5 -180.5t176.5 -74t176 74t72 180.5t-72 179.5t-176 73t-176.5 -73t-72.5 -179.5zM263 138v336h125q46 0 77 -30t31 -73q0 -67 -65 -91 l74 -142h-69l-69 133h-43v-133h-61zM324 321h57q24 0 39.5 14.5t15.5 36t-15.5 36t-39.5 14.5h-57v-101z" />
<glyph unicode="&#xb4;" horiz-adv-x="514" d="M203 616l78 167h116l-114 -167h-80z" />
<glyph unicode="&#xb8;" horiz-adv-x="279" d="M21 -203l18 41q43 -16 78 -16q52 0 52 42q0 32 -42 32q-8 0 -25 -2l-17 -4l-21 19l59 91h54l-44 -63q24 5 36 5q38 0 63.5 -19.5t25.5 -56.5q0 -48 -39 -72t-88 -24q-46 0 -110 27z" />
<glyph unicode="&#xbb;" d="M60 100l124 164l-124 158h113l120 -158l-120 -164h-113zM265 100l123 164l-123 158h113l121 -158l-121 -164h-113z" />
<glyph unicode="&#x2c6;" horiz-adv-x="279" d="M-38 588l114 148h125l115 -148h-113l-64 82l-64 -82h-113z" />
<glyph unicode="&#x2da;" horiz-adv-x="279" d="M31 696q0 45 31.5 77t76.5 32t77 -32t32 -77t-31.5 -76.5t-77.5 -31.5q-45 0 -76.5 31.5t-31.5 76.5zM86 696q0 -23 15 -39t38 -16t39 16t16 39t-16 38.5t-39 15.5t-38 -15.5t-15 -38.5z" />
<glyph unicode="&#x2dc;" horiz-adv-x="279" d="M-45 597q9 50 38 86t77 36q30 0 78.5 -18.5t62.5 -18.5q18 0 30.5 12.5t16.5 30.5h65q-27 -122 -111 -122q-26 0 -78 17.5t-70 17.5q-30 0 -46 -41h-63z" />
<glyph unicode="&#x5b0;" horiz-adv-x="0" d="M-48 -159q0 21 14.5 35t33.5 14t33.5 -14t14.5 -35v2q0 -20 -14.5 -33.5t-33.5 -13.5q-21 0 -34.5 13t-13.5 32zM-48 -299q0 19 14.5 33t33.5 14t33.5 -14t14.5 -33v1q0 -19 -14.5 -33.5t-33.5 -14.5t-33.5 14t-14.5 33z" />
<glyph unicode="&#x5b1;" horiz-adv-x="0" d="M-201 -158.5q0 19.5 14 34t33.5 14.5t33.5 -14t14 -33h1q0 -20 -14.5 -33.5t-34 -13.5t-33.5 13t-14 32.5zM-113 -299q0 19 15 33t34 14t33 -14t14 -33v1q0 -19 -14 -33.5t-33 -14.5t-34 14t-15 33zM-48 -159q0 21 14.5 35t33.5 14t33 -14t14 -33h1q0 -20 -14.5 -33.5 t-33.5 -13.5q-21 0 -34.5 13t-13.5 32zM105 -159q0 21 14 35t35 14q19 0 33 -14.5t14 -34.5v2q0 -20 -14 -33.5t-33 -13.5q-21 0 -35 13t-14 32zM105 -299q0 19 14.5 33t34 14t33.5 -14t14 -33v1q0 -19 -14 -33.5t-33.5 -14.5t-34 14t-14.5 33z" />
<glyph unicode="&#x5b2;" horiz-adv-x="0" d="M-185 -121h216v-73h-216v73zM90 -158.5q0 19.5 13.5 34t33.5 14.5t34 -14t14 -35v2q0 -20 -14 -33.5t-33 -13.5q-21 0 -34.5 13t-13.5 32.5zM90 -299q0 19 13.5 33t33 14t34 -14t14.5 -33v1q0 -19 -14 -33.5t-33 -14.5t-33.5 14t-14.5 33z" />
<glyph unicode="&#x5b3;" horiz-adv-x="0" d="M-178 -121h217v-73h-72v-141h-73v141h-72v73zM97 -159q0 21 14.5 35t34 14t34 -14t14.5 -35v2q0 -20 -14.5 -33.5t-34.5 -13.5t-34 13t-14 32zM97 -299q0 19 14.5 33t34 14t34 -14t14.5 -33v1q0 -19 -14.5 -33.5t-34 -14.5t-34 14t-14.5 33z" />
<glyph unicode="&#x5b4;" horiz-adv-x="0" d="M-48 -159q0 21 14.5 35t33.5 14t33.5 -14t14.5 -35v2q0 -20 -14.5 -33.5t-33.5 -13.5q-21 0 -34.5 13t-13.5 32z" />
<glyph unicode="&#x5b5;" horiz-adv-x="0" d="M-136 -158.5q0 19.5 14 34t33.5 14.5t33.5 -14t14 -33.5t-14 -33t-32 -13.5q-21 0 -35 13t-14 32.5zM41 -158.5q0 19.5 14 34t32 14.5q19 0 34 -14t15 -35v2q0 -20 -14 -33.5t-33.5 -13.5t-33.5 13t-14 32.5z" />
<glyph unicode="&#x5b6;" horiz-adv-x="0" d="M-136 -158.5q0 19.5 14 34t33.5 14.5t33.5 -14t14 -33.5t-14 -33t-32 -13.5q-21 0 -35 13t-14 32.5zM-48 -305q0 19 14.5 33t33.5 14t33.5 -14t14.5 -33v1q0 -20 -14.5 -34t-33.5 -14t-33.5 14t-14.5 33zM41 -158.5q0 19.5 14 34t32 14.5q19 0 34 -14t15 -35v2 q0 -20 -14 -33.5t-33.5 -13.5t-33.5 13t-14 32.5z" />
<glyph unicode="&#x5b7;" horiz-adv-x="0" d="M-132 -85h264v-72h-264v72z" />
<glyph unicode="&#x5b8;" horiz-adv-x="0" d="M-132 -121h264v-73h-96v-141h-72v141h-96v73z" />
<glyph unicode="&#x5b9;" horiz-adv-x="0" d="M-48 704.5q0 19.5 14.5 33t33.5 13.5t33.5 -13.5t14.5 -33t-14.5 -34t-33.5 -14.5t-33.5 14.5t-14.5 34z" />
<glyph unicode="&#x5bb;" horiz-adv-x="0" d="M-48 -159q0 21 14.5 35t33.5 14t33 -14t14 -33h1q0 -20 -14.5 -33.5t-33.5 -13.5q-21 0 -34.5 13t-13.5 32zM85 -222.5q0 19.5 14 34t33 14.5t33.5 -14t14.5 -33.5t-14 -34t-33 -14.5t-33.5 14t-14.5 33.5zM218 -286.5q0 19.5 14 33t33 13.5t33.5 -13.5t14.5 -33.5v1 q0 -19 -13.5 -33.5t-33 -14.5t-34 14t-14.5 33.5z" />
<glyph unicode="&#x5bc;" horiz-adv-x="0" d="M-48 290.5q0 19.5 14.5 34t33.5 14.5t33.5 -14.5t14.5 -34t-14.5 -34t-33.5 -14.5t-33.5 14.5t-14.5 34z" />
<glyph unicode="&#x5bd;" horiz-adv-x="1210" />
<glyph unicode="&#x5be;" horiz-adv-x="381" d="M60 536v103h261v-103h-261z" />
<glyph unicode="&#x5bf;" horiz-adv-x="0" d="M-126 679v72h252v-72h-252z" />
<glyph unicode="&#x5c1;" horiz-adv-x="0" d="M-48 704.5q0 19.5 14.5 34t33.5 14.5t33.5 -14.5t14.5 -34t-14.5 -34t-33.5 -14.5t-33.5 14.5t-14.5 34z" />
<glyph unicode="&#x5c2;" horiz-adv-x="0" d="M-48 704.5q0 19.5 14.5 34t33.5 14.5t33.5 -14.5t14.5 -34t-14.5 -34t-33.5 -14.5t-33.5 14.5t-14.5 34z" />
<glyph unicode="&#x5d0;" horiz-adv-x="520" d="M60 0v345l96 95l-89 229h140l108 -288l6 5v283h139v-317l-97 -97l93 -255h-143l-109 317l-4 -5v-312h-140z" />
<glyph unicode="&#x5d1;" horiz-adv-x="477" d="M48 0v133h199v403h-187v133h326v-536h50v-133h-388z" />
<glyph unicode="&#x5d2;" horiz-adv-x="367" d="M30 0l37 293h104l-33 243h-73v133h193l86 -669h-137l-19 189h-10l-17 -189h-131z" />
<glyph unicode="&#x5d3;" horiz-adv-x="453" d="M24 536v133h387v-133h-49v-536h-139v536h-199z" />
<glyph unicode="&#x5d4;" horiz-adv-x="508" d="M60 0v403h140v-403h-140zM60 536v133h388v-669h-139v536h-249z" />
<glyph unicode="&#x5d5;" horiz-adv-x="260" d="M60 0v669h140v-669h-140z" />
<glyph unicode="&#x5d6;" horiz-adv-x="350" d="M36 536v133h266v-133h-45q-22 -40 -19 -91l35 -445h-139l-35 448q-2 42 16 88h-79z" />
<glyph unicode="&#x5d7;" horiz-adv-x="508" d="M60 0v669h388v-669h-139v536h-109v-536h-140z" />
<glyph unicode="&#x5d8;" horiz-adv-x="508" d="M60 0v669h140v-536h109v403h-66l17 133h118q29 0 49.5 -20t20.5 -48v-601h-388z" />
<glyph unicode="&#x5d9;" horiz-adv-x="278" d="M30 536v133h200v-427h-139v294h-61z" />
<glyph unicode="&#x5da;" horiz-adv-x="440" d="M36 536v133h344v-790h-139v657h-205z" />
<glyph unicode="&#x5db;" horiz-adv-x="458" d="M42 0v133h217v403h-217v133h356v-601q0 -28 -20.5 -48t-48.5 -20h-287z" />
<glyph unicode="&#x5dc;" horiz-adv-x="428" d="M24 536v221h139v-88h217v-542q0 -53 -38 -90t-93 -37h-158v133h150v403h-217z" />
<glyph unicode="&#x5dd;" horiz-adv-x="532" d="M36 536v133h436v-669h-387v536h-49zM224 133h109v403h-109v-403z" />
<glyph unicode="&#x5de;" horiz-adv-x="490" d="M42 536v133h164v-40l46 40h113q29 0 50 -20t21 -48v-601h-194v133h54v403h-82l-36 -536h-134l36 536h-38z" />
<glyph unicode="&#x5df;" horiz-adv-x="308" d="M48 536v133h200v-790h-139v657h-61z" />
<glyph unicode="&#x5e0;" horiz-adv-x="343" d="M24 0v133h120v403h-59v133h198v-601q0 -28 -20.5 -48t-48.5 -20h-190z" />
<glyph unicode="&#x5e1;" horiz-adv-x="470" d="M30 669h410l-37 -593q-4 -40 -27.5 -58t-56.5 -18h-243zM178 536l28 -403h66l27 403h-121z" />
<glyph unicode="&#x5e2;" horiz-adv-x="508" d="M42 0v133h69l-37 536h139l37 -536h60l36 536h132l-40 -594q-1 -36 -24 -55.5t-53 -19.5h-319z" />
<glyph unicode="&#x5e3;" horiz-adv-x="496" d="M48 252v417h388v-790h-140v657h-108v-284h-140z" />
<glyph unicode="&#x5e4;" horiz-adv-x="508" d="M60 0v133h249v403h-109v-224h-140v357h388v-601q0 -28 -20.5 -48t-48.5 -20h-319z" />
<glyph unicode="&#x5e5;" horiz-adv-x="477" d="M48 -121v790h140v-261l108 89v172h140v-236l-248 -203v-351h-140z" />
<glyph unicode="&#x5e6;" horiz-adv-x="450" d="M30 669h150l72 -172h8l28 172h132l-47 -284h-75l113 -259v-126h-367v133h214z" />
<glyph unicode="&#x5e7;" horiz-adv-x="508" d="M60 -121v523h140v-523h-140zM60 536v133h388v-544q0 -54 -38.5 -90.5t-92.5 -36.5h-69v133h61v405h-249z" />
<glyph unicode="&#x5e8;" horiz-adv-x="405" d="M24 536v133h190q56 0 93.5 -34t37.5 -80v-555h-139v536h-182z" />
<glyph unicode="&#x5e9;" horiz-adv-x="625" d="M30 669h132l20 -295h53l15 295h134l-26 -420h-166l6 -116h228l36 536h133l-38 -586q-5 -83 -85 -83h-398z" />
<glyph unicode="&#x5ea;" horiz-adv-x="556" d="M48 0v133h61v403h-49v133h436v-669h-139v536h-109v-536h-200z" />
<glyph unicode="&#x5f0;" horiz-adv-x="520" d="M320 0v669h140v-669h-140zM60 0v669h140v-669h-140z" />
<glyph unicode="&#x5f1;" horiz-adv-x="538" d="M338 0v669h140v-669h-140zM30 536v133h200v-427h-139v294h-61z" />
<glyph unicode="&#x5f2;" horiz-adv-x="556" d="M308 536v133h200v-427h-139v294h-61zM30 536v133h200v-427h-139v294h-61z" />
<glyph unicode="&#x5f3;" horiz-adv-x="223" d="M60 425v299h103v-230z" />
<glyph unicode="&#x5f4;" horiz-adv-x="375" d="M60 425v299h103v-230zM212 425v299h103v-230z" />
<glyph unicode="&#x2000;" horiz-adv-x="425" />
<glyph unicode="&#x2001;" horiz-adv-x="851" />
<glyph unicode="&#x2002;" horiz-adv-x="425" />
<glyph unicode="&#x2003;" horiz-adv-x="851" />
<glyph unicode="&#x2004;" horiz-adv-x="283" />
<glyph unicode="&#x2005;" horiz-adv-x="212" />
<glyph unicode="&#x2006;" horiz-adv-x="141" />
<glyph unicode="&#x2007;" horiz-adv-x="141" />
<glyph unicode="&#x2008;" horiz-adv-x="106" />
<glyph unicode="&#x2009;" horiz-adv-x="170" />
<glyph unicode="&#x200a;" horiz-adv-x="47" />
<glyph unicode="&#x2010;" horiz-adv-x="532" d="M60 299v102h412v-102h-412z" />
<glyph unicode="&#x2011;" horiz-adv-x="532" d="M60 299v102h412v-102h-412z" />
<glyph unicode="&#x2012;" horiz-adv-x="532" d="M60 299v102h412v-102h-412z" />
<glyph unicode="&#x2013;" horiz-adv-x="532" d="M60 299v102h412v-102h-412z" />
<glyph unicode="&#x2014;" horiz-adv-x="683" d="M60 322v103h563v-103h-563z" />
<glyph unicode="&#x2018;" horiz-adv-x="223" d="M60 442v230l103 69v-299h-103z" />
<glyph unicode="&#x2019;" horiz-adv-x="223" d="M60 425v299h103v-230z" />
<glyph unicode="&#x201a;" horiz-adv-x="279" d="M70 0v143h139v-143l-64 -151h-65l51 151h-61z" />
<glyph unicode="&#x201c;" horiz-adv-x="375" d="M60 442v230l103 69v-299h-103zM212 442v230l103 69v-299h-103z" />
<glyph unicode="&#x201d;" horiz-adv-x="375" d="M60 425v299h103v-230zM212 425v299h103v-230z" />
<glyph unicode="&#x201e;" horiz-adv-x="446" d="M41 0v143h139v-143l-65 -151h-65l52 151h-61zM265 0v143h139v-143l-64 -151h-65l50 151h-60z" />
<glyph unicode="&#x2026;" horiz-adv-x="1004" d="M97 0v143h143v-143h-143zM431 0v143h143v-143h-143zM765 0v143h143v-143h-143z" />
<glyph unicode="&#x202f;" horiz-adv-x="170" />
<glyph unicode="&#x2039;" horiz-adv-x="333" d="M41 258l121 164h113l-124 -164l124 -158h-113z" />
<glyph unicode="&#x203a;" horiz-adv-x="333" d="M60 100l124 158l-124 164h113l120 -164l-120 -158h-113z" />
<glyph unicode="&#x205f;" horiz-adv-x="212" />
<glyph unicode="&#x20ac;" horiz-adv-x="588" d="M34 203v72h59v65h-59v71h63q8 94 67.5 150t154.5 56q88 0 148.5 -49.5t75.5 -143.5h-121q-21 87 -103 87q-90 0 -101 -100h128v-71h-133v-65h133v-72h-128q8 -101 101 -101q84 0 103 87h121q-15 -93 -75.5 -143.5t-148.5 -50.5q-96 0 -155 56.5t-67 151.5h-63z" />
<glyph unicode="&#x2122;" horiz-adv-x="1004" d="M22 641v84h342v-84h-121v-330h-100v330h-121zM446 311v414h151l93 -259h2l92 259h150v-414h-100v283l-4 1l-100 -284h-78l-100 283h-5v-283h-101z" />
<glyph unicode="&#xe000;" horiz-adv-x="525" d="M0 525h525v-525h-525v525z" />
<glyph unicode="&#xfb00;" horiz-adv-x="667" d="M346 422v101h71v64q0 82 34.5 115.5t113.5 33.5h82v-101h-33q-39 0 -55 -13t-16 -44v-55h106v-101h-106v-422h-124v422h-73zM12 422v101h71v64q0 82 34.5 115.5t113.5 33.5h82v-101h-33q-39 0 -55 -13t-16 -44v-55h106v-101h-106v-422h-124v422h-73z" />
<glyph unicode="&#xfb01;" d="M12 422v101h71v64q0 82 34.5 115.5t113.5 33.5h82v-101h-33q-39 0 -55 -13t-16 -44v-55h106v-101h-106v-422h-124v422h-73zM369 0v523h125v-523h-125zM369 618v118h125v-118h-125z" />
<glyph unicode="&#xfb02;" d="M12 422v101h71v64q0 82 34.5 115.5t113.5 33.5h82v-101h-33q-39 0 -55 -13t-16 -44v-55h106v-101h-106v-422h-124v422h-73zM369 0v725h125v-725h-125z" />
<glyph unicode="&#xfb03;" horiz-adv-x="947" d="M745 0v523h125v-523h-125zM745 618v118h125v-118h-125zM346 422v101h71v64q0 82 34.5 115.5t113.5 33.5h82v-101h-33q-39 0 -55 -13t-16 -44v-55h106v-101h-106v-422h-124v422h-73zM12 422v101h71v64q0 82 34.5 115.5t113.5 33.5h82v-101h-33q-39 0 -55 -13t-16 -44v-55 h106v-101h-106v-422h-124v422h-73z" />
<glyph unicode="&#xfb04;" horiz-adv-x="947" d="M745 0v725h125v-725h-125zM346 422v101h71v64q0 82 34.5 115.5t113.5 33.5h82v-101h-33q-39 0 -55 -13t-16 -44v-55h106v-101h-106v-422h-124v422h-73zM12 422v101h71v64q0 82 34.5 115.5t113.5 33.5h82v-101h-33q-39 0 -55 -13t-16 -44v-55h106v-101h-106v-422h-124v422 h-73z" />
<glyph unicode="&#xfb06;" horiz-adv-x="780" d="M458 422v101h73v172h124v-172h102v-101h-102v-295q0 -21 10.5 -28.5t34.5 -7.5q9 0 57 9v-102q-68 -8 -98 -8q-128 0 -128 120v312h-73zM22 96l83 61q55 -75 122 -75q33 0 53.5 16.5t20.5 43.5q0 24 -26.5 41t-65 30t-77.5 30t-65.5 52t-26.5 86q0 70 51 110.5t122 40.5 q116 0 184 -79l-79 -68q-53 55 -97 55q-70 0 -70 -52q0 -24 26.5 -40t65 -29t77 -30t65 -53t26.5 -90q0 -77 -52.5 -116.5t-138.5 -39.5q-128 0 -198 106z" />
<glyph unicode="&#xfb1d;" horiz-adv-x="278" d="M30 536v133h200v-427h-139v294h-61zM-48 -159q0 21 14.5 35t33.5 14t33.5 -14t14.5 -35v2q0 -20 -14.5 -33.5t-33.5 -13.5q-21 0 -34.5 13t-13.5 32z" />
<glyph unicode="&#xfb1f;" horiz-adv-x="1210" />
<glyph unicode="&#xfb20;" horiz-adv-x="508" d="M42 0v133h69l-37 536h139l37 -536h60l36 536h132l-40 -594q-1 -36 -24 -55.5t-53 -19.5h-319z" />
<glyph unicode="&#xfb21;" horiz-adv-x="520" d="M60 0v345l96 95l-89 229h140l108 -288l6 5v283h139v-317l-97 -97l93 -255h-143l-109 317l-4 -5v-312h-140z" />
<glyph unicode="&#xfb22;" horiz-adv-x="453" d="M24 536v133h387v-133h-49v-536h-139v536h-199z" />
<glyph unicode="&#xfb23;" horiz-adv-x="508" d="M60 0v403h140v-403h-140zM60 536v133h388v-669h-139v536h-249z" />
<glyph unicode="&#xfb24;" horiz-adv-x="458" d="M42 0v133h217v403h-217v133h356v-601q0 -28 -20.5 -48t-48.5 -20h-287z" />
<glyph unicode="&#xfb25;" horiz-adv-x="428" d="M24 536v221h139v-88h217v-542q0 -53 -38 -90t-93 -37h-158v133h150v403h-217z" />
<glyph unicode="&#xfb26;" horiz-adv-x="532" d="M36 536v133h436v-669h-387v536h-49zM224 133h109v403h-109v-403z" />
<glyph unicode="&#xfb27;" horiz-adv-x="405" d="M24 536v133h190q56 0 93.5 -34t37.5 -80v-555h-139v536h-182z" />
<glyph unicode="&#xfb28;" horiz-adv-x="556" d="M48 0v133h61v403h-49v133h436v-669h-139v536h-109v-536h-200z" />
<glyph unicode="&#xfb29;" horiz-adv-x="562" d="M60 292v115h166v154h109v-153h167v-116h-167v-154h-109v154h-166z" />
<glyph unicode="&#xfb2a;" horiz-adv-x="625" d="M30 669h132l20 -295h53l15 295h134l-26 -420h-166l6 -116h228l36 536h133l-38 -586q-5 -83 -85 -83h-398zM500 755q0 19 14 33.5t34.5 14.5t34.5 -14.5t14 -33.5t-14 -33.5t-34.5 -14.5t-34.5 14.5t-14 33.5z" />
<glyph unicode="&#xfb2b;" horiz-adv-x="625" d="M29 755q0 19 14.5 33.5t34 14.5t34 -14.5t14.5 -33.5t-14.5 -33.5t-34 -14.5t-34 14.5t-14.5 33.5zM30 669h132l20 -295h53l15 295h134l-26 -420h-166l6 -116h228l36 536h133l-38 -586q-5 -83 -85 -83h-398z" />
<glyph unicode="&#xfb2c;" horiz-adv-x="625" d="M30 669h132l20 -295h53l15 295h134l-26 -420h-166l6 -116h228l36 536h133l-38 -586q-5 -83 -85 -83h-398zM379 342.5q0 9.5 7 17t17 7.5t17 -7.5t7 -17t-7 -17t-17 -7.5t-17 7.5t-7 17zM500 755q0 19 14 33.5t34.5 14.5t34.5 -14.5t14 -33.5t-14 -33.5t-34.5 -14.5 t-34.5 14.5t-14 33.5z" />
<glyph unicode="&#xfb2d;" horiz-adv-x="625" d="M29 755q0 19 14.5 33.5t34 14.5t34 -14.5t14.5 -33.5t-14.5 -33.5t-34 -14.5t-34 14.5t-14.5 33.5zM30 669h132l20 -295h53l15 295h134l-26 -420h-166l6 -116h228l36 536h133l-38 -586q-5 -83 -85 -83h-398zM379 342.5q0 9.5 7 17t17 7.5t17 -7.5t7 -17t-7 -17t-17 -7.5 t-17 7.5t-7 17z" />
<glyph unicode="&#xfb2e;" horiz-adv-x="520" d="M60 0v345l96 95l-89 229h140l108 -288l6 5v283h139v-317l-97 -97l93 -255h-143l-109 317l-4 -5v-312h-140zM-132 -85h264v-72h-264v72z" />
<glyph unicode="&#xfb2f;" horiz-adv-x="520" d="M60 0v345l96 95l-89 229h140l108 -288l6 5v283h139v-317l-97 -97l93 -255h-143l-109 317l-4 -5v-312h-140zM-132 -121h264v-73h-96v-141h-72v141h-96v73z" />
<glyph unicode="&#xfb30;" horiz-adv-x="520" d="M60 0v345l96 95l-89 229h140l108 -288l6 5v283h139v-317l-97 -97l93 -255h-143l-109 317l-4 -5v-312h-140zM-48 290.5q0 19.5 14.5 34t33.5 14.5t33.5 -14.5t14.5 -34t-14.5 -34t-33.5 -14.5t-33.5 14.5t-14.5 34z" />
<glyph unicode="&#xfb31;" horiz-adv-x="477" d="M48 0v133h199v403h-187v133h326v-536h50v-133h-388zM98 342.5q0 -20.5 14 -34.5t34.5 -14t34.5 14t14 34.5t-14 34.5t-34.5 14t-34.5 -14t-14 -34.5z" />
<glyph unicode="&#xfb32;" horiz-adv-x="367" d="M19 403q0 -21 14.5 -34.5t34 -13.5t34 13.5t14.5 34.5t-14.5 34.5t-34 13.5t-34 -13.5t-14.5 -34.5zM30 0l37 293h104l-33 243h-73v133h193l86 -669h-137l-19 189h-10l-17 -189h-131z" />
<glyph unicode="&#xfb33;" horiz-adv-x="453" d="M24 536v133h387v-133h-49v-536h-139v536h-199zM75 342.5q0 -20.5 14.5 -34.5t34 -14t34 14t14.5 34.5t-14.5 34.5t-34 14t-34 -14t-14.5 -34.5z" />
<glyph unicode="&#xfb34;" horiz-adv-x="508" d="M60 0v403h140v-403h-140zM60 536v133h388v-669h-139v536h-249zM235 342.5q0 -9.5 7 -17t17 -7.5t17 7.5t7 17t-7 17t-17 7.5t-17 -7.5t-7 -17z" />
<glyph unicode="&#xfb35;" horiz-adv-x="260" d="M-80 342.5q0 -20.5 14.5 -34.5t34 -14t34 14t14.5 34.5t-14.5 34.5t-34 14t-34 -14t-14.5 -34.5zM60 0v669h140v-669h-140z" />
<glyph unicode="&#xfb36;" horiz-adv-x="350" d="M-48 342.5q0 -20.5 14.5 -34.5t33.5 -14t33.5 14t14.5 34.5t-14.5 34.5t-33.5 14t-33.5 -14t-14.5 -34.5zM36 536v133h266v-133h-45q-22 -40 -19 -91l35 -445h-139l-35 448q-2 42 16 88h-79z" />
<glyph unicode="&#xfb38;" horiz-adv-x="508" d="M60 0v669h140v-536h109v403h-66l17 133h118q29 0 49.5 -20t20.5 -48v-601h-388zM229 342.5q0 -9.5 7 -17t17 -7.5t17 7.5t7 17t-7 17t-17 7.5t-17 -7.5t-7 -17z" />
<glyph unicode="&#xfb39;" horiz-adv-x="278" d="M-48 342.5q0 -20.5 14.5 -34.5t33.5 -14t33.5 14t14.5 34.5t-14.5 34.5t-33.5 14t-33.5 -14t-14.5 -34.5zM30 536v133h200v-427h-139v294h-61z" />
<glyph unicode="&#xfb3a;" horiz-adv-x="440" d="M36 536v133h344v-790h-139v657h-205zM88 342.5q0 -20.5 14 -34.5t34.5 -14t34.5 14t14 34.5t-14 34.5t-34.5 14t-34.5 -14t-14 -34.5z" />
<glyph unicode="&#xfb3b;" horiz-adv-x="458" d="M42 0v133h217v403h-217v133h356v-601q0 -28 -20.5 -48t-48.5 -20h-287zM98 342.5q0 -20.5 14 -34.5t34.5 -14t34.5 14t14 34.5t-14 34.5t-34.5 14t-34.5 -14t-14 -34.5z" />
<glyph unicode="&#xfb3c;" horiz-adv-x="428" d="M24 536v221h139v-88h217v-542q0 -53 -38 -90t-93 -37h-158v133h150v403h-217zM97 342.5q0 -20.5 14.5 -34.5t34 -14t34 14t14.5 34.5t-14.5 34.5t-34 14t-34 -14t-14.5 -34.5z" />
<glyph unicode="&#xfb3e;" horiz-adv-x="490" d="M42 536v133h164v-40l46 40h113q29 0 50 -20t21 -48v-601h-194v133h54v403h-82l-36 -536h-134l36 536h-38zM229 342.5q0 -9.5 7 -17t17 -7.5t17 7.5t7 17t-7 17t-17 7.5t-17 -7.5t-7 -17z" />
<glyph unicode="&#xfb40;" horiz-adv-x="343" d="M-2 342.5q0 -20.5 14.5 -34.5t33.5 -14t33.5 14t14.5 34.5t-14.5 34.5t-33.5 14t-33.5 -14t-14.5 -34.5zM24 0v133h120v403h-59v133h198v-601q0 -28 -20.5 -48t-48.5 -20h-190z" />
<glyph unicode="&#xfb41;" horiz-adv-x="470" d="M30 669h410l-37 -593q-4 -40 -27.5 -58t-56.5 -18h-243zM178 536l28 -403h66l27 403h-121zM215 342.5q0 -9.5 7.5 -17t17 -7.5t17 7.5t7.5 17t-7.5 17t-17 7.5t-17 -7.5t-7.5 -17z" />
<glyph unicode="&#xfb43;" horiz-adv-x="496" d="M48 252v417h388v-790h-140v657h-108v-284h-140zM-48 290.5q0 19.5 14.5 34t33.5 14.5t33.5 -14.5t14.5 -34t-14.5 -34t-33.5 -14.5t-33.5 14.5t-14.5 34z" />
<glyph unicode="&#xfb44;" horiz-adv-x="508" d="M60 0v133h249v403h-109v-224h-140v357h388v-601q0 -28 -20.5 -48t-48.5 -20h-319zM231 342.5q0 -9.5 7.5 -17t17 -7.5t17 7.5t7.5 17t-7.5 17t-17 7.5t-17 -7.5t-7.5 -17z" />
<glyph unicode="&#xfb46;" horiz-adv-x="450" d="M16 342.5q0 -20.5 14 -34.5t34.5 -14t34.5 14t14 34.5t-14 34.5t-34.5 14t-34.5 -14t-14 -34.5zM30 669h150l72 -172h8l28 172h132l-47 -284h-75l113 -259v-126h-367v133h214z" />
<glyph unicode="&#xfb47;" horiz-adv-x="508" d="M60 -121v523h140v-523h-140zM60 536v133h388v-544q0 -54 -38.5 -90.5t-92.5 -36.5h-69v133h61v405h-249zM231 342.5q0 -9.5 7.5 -17t17 -7.5t17 7.5t7.5 17t-7.5 17t-17 7.5t-17 -7.5t-7.5 -17z" />
<glyph unicode="&#xfb48;" horiz-adv-x="405" d="M24 536v133h190q56 0 93.5 -34t37.5 -80v-555h-139v536h-182zM-48 290.5q0 19.5 14.5 34t33.5 14.5t33.5 -14.5t14.5 -34t-14.5 -34t-33.5 -14.5t-33.5 14.5t-14.5 34z" />
<glyph unicode="&#xfb49;" horiz-adv-x="625" d="M30 669h132l20 -295h53l15 295h134l-26 -420h-166l6 -116h228l36 536h133l-38 -586q-5 -83 -85 -83h-398zM380 342.5q0 -9.5 7 -17t17 -7.5t17 7.5t7 17t-7 17t-17 7.5t-17 -7.5t-7 -17z" />
<glyph unicode="&#xfb4a;" horiz-adv-x="556" d="M48 0v133h61v403h-49v133h436v-669h-139v536h-109v-536h-200zM281 342.5q0 -9.5 7 -17t17 -7.5t17 7.5t7 17t-7 17t-17 7.5t-17 -7.5t-7 -17z" />
<glyph unicode="&#xfb4b;" horiz-adv-x="260" d="M60 0v669h140v-669h-140zM60 755q0 19 15 33.5t34 14.5t33.5 -14.5t14.5 -33.5t-14.5 -33.5t-33.5 -14.5t-34 14.5t-15 33.5z" />
<glyph unicode="&#xfb4c;" horiz-adv-x="477" d="M48 0v133h199v403h-187v133h326v-536h50v-133h-388zM-126 679v72h252v-72h-252z" />
<glyph unicode="&#xfb4d;" horiz-adv-x="458" d="M42 0v133h217v403h-217v133h356v-601q0 -28 -20.5 -48t-48.5 -20h-287zM-126 679v72h252v-72h-252z" />
<glyph unicode="&#xfb4e;" horiz-adv-x="508" d="M60 0v133h249v403h-109v-224h-140v357h388v-601q0 -28 -20.5 -48t-48.5 -20h-319zM-126 679v72h252v-72h-252z" />
<glyph unicode="&#xfb4f;" horiz-adv-x="948" d="M488 0v345l96 95l-89 229h140l108 -288l6 5v283h139v-317l-97 -97l93 -255h-143l-109 317l-4 -5v-312h-140zM24 536v221h139v-88h217v-542q0 -53 -38 -90t-93 -37h-158v133h150v403h-217z" />
<glyph horiz-adv-x="284" />
</font>
</defs>
</svg>
